<svg width="224" height="77" viewBox="0 0 224 77" fill="none" xmlns="http://www.w3.org/2000/svg">
<path fill-rule="evenodd" clip-rule="evenodd" d="M50.5274 50.0385H30.5603V76.6612H37.2159V70.0054H43.8718V76.6612H50.5274V50.0385ZM123.71 50.0385H137.022V56.6941H130.366V63.3497H137.022V70.0054H130.366V76.6612H123.71V50.0385ZM150.333 63.3497H156.989V70.0054H143.678V50.0385H150.333V63.3497ZM183.612 50.0385H163.645V70.0054H183.612V50.0385ZM23.9046 50.0385H10.5931V56.6941H3.9375V63.3497H17.249V56.6941H23.9046V50.0385ZM37.2159 56.6941V63.3497H43.8718V56.6941H37.2159ZM63.8387 56.6941V63.3497H70.4946V56.6941H77.1502V50.0385H57.183V56.6941H63.8387ZM190.267 63.3497V50.0385H196.923V56.6941H203.579V50.0385H210.234V56.6941H216.89V50.0385H223.546V63.3497H190.267ZM103.773 50.0385H90.4615V56.6941H83.8058V63.3497H97.1171V56.6941H103.773V50.0385ZM170.3 56.6941V63.3497H176.956V56.6941H170.3ZM157.004 23.4605V16.8018H150.345V36.7776H157.004V30.1189H163.662V36.7776H170.321V23.4605H157.004ZM63.8387 3.49922H77.1502V10.1549H70.4946V16.8105H77.1502V23.4664H70.4946V30.122H77.1502V36.7776H63.8387V3.49922ZM50.5274 30.122H57.183V36.7776H43.8718V16.8105H50.5274V30.122ZM130.369 30.1189V36.7776H137.028V30.1189H143.687V23.4605H123.71V30.1189H130.369ZM90.4615 30.122V36.7776H97.1171V30.122H103.773V23.4664H83.8058V30.122H90.4615ZM176.98 36.7776V3.48438H190.297V10.1431H183.638V16.8018H190.297V23.4605H183.638V30.1189H190.297V36.7776H176.98Z" fill="#20ECC7"/>
<path fill-rule="evenodd" clip-rule="evenodd" d="M120.227 46.5541H133.538V53.2097H126.882V59.8654H133.538V66.521H126.882V73.1769H120.227V46.5541ZM47.0435 46.5541H27.0764V73.1769H33.732V66.521H40.3877V73.1769H47.0435V46.5541ZM146.849 59.8654H153.505V66.521H140.194V46.5541H146.849V59.8654ZM180.128 46.5541H160.161V66.521H180.128V46.5541ZM20.4208 46.5541H7.10925V53.2097H0.453613V59.8654H13.7651V53.2097H20.4208V46.5541ZM33.732 53.2097V59.8654H40.3877V53.2097H33.732ZM193.439 53.2097H200.095V46.5541H206.75V53.2097H213.406V46.5541H220.062V59.8654H186.784V46.5541H193.439V53.2097ZM60.3548 53.2097V59.8654H67.0104V53.2097H73.6663V46.5541H53.6992V53.2097H60.3548ZM100.289 46.5541H86.9776V53.2097H80.3219V59.8654H93.6332V53.2097H100.289V46.5541ZM166.816 53.2097V59.8654H173.472V53.2097H166.816ZM153.52 19.9759V13.3174H146.861V33.2933H153.52V26.6346H160.178V33.2933H166.837V19.9759H153.52ZM60.3548 0.0148498H73.6663V6.67049H67.0104V13.3261H73.6663V19.9818H67.0104V26.6376H73.6663V33.2933H60.3548V0.0148498ZM47.0435 26.6376H53.6992V33.2933H40.3877V13.3261H47.0435V26.6376ZM86.9776 26.6376V33.2933H93.6332V26.6376H100.289V19.9818H80.3219V26.6376H86.9776ZM126.885 26.6346V33.2933H133.544V26.6346H140.203V19.9759H120.227V26.6346H126.885ZM173.496 33.2933V0H186.813V6.6587H180.154V13.3174H186.813V19.9759H180.154V26.6346H186.813V33.2933H173.496Z" fill="#FC257A"/>
<path d="M31.271 25.9483C24.2807 30.4548 12.7258 25.5434 14.2852 18.4958C15.6524 12.3172 22.9921 14.0929 24.6616 14.9267C26.3311 15.7605 25.3207 11.3318 21.4493 10.0025C16.2052 8.20175 9.7862 8.58352 7.75715 17.6287C6.37056 23.8102 9.08644 32.4764 19.5146 32.592C29.9427 32.7075 31.271 25.9483 31.271 25.9483Z" fill="#E9E9E9"/>
<path d="M33.7208 27.1674C33.7208 25.1836 31.175 25.0098 30.0232 26.133C27.2556 28.8313 23.1809 29.8417 17.7306 28.7777C8.25554 26.9289 8.17142 15.8232 14.6496 12.6553C18.154 10.9414 22.3119 12.9705 23.8926 14.1852C25.2681 15.2417 27.899 16.6441 27.7612 14.8803C27.4673 11.1254 20.1082 3.08407 10.2476 8.16826C0.387992 13.2524 0.453625 24.727 0.453625 26.8069V33.5088C0.453625 35.5507 2.13048 37.1573 4.17247 37.1573H30.0556C32.0976 37.1573 33.7319 35.5507 33.7319 33.5088C33.7319 33.5088 33.7282 27.1729 33.7208 27.1674Z" fill="#20ECC7"/>
<path d="M220.73 27.8122C215.137 31.4173 205.893 27.4883 207.141 21.8502C208.235 16.9072 214.107 18.3279 215.442 18.9949C216.778 19.662 215.969 16.1189 212.872 15.0555C208.677 13.6149 203.542 13.9203 201.919 21.1565C200.809 26.1017 202.982 33.0347 211.324 33.1271C219.667 33.2196 220.73 27.8122 220.73 27.8122Z" fill="#E9E9E9"/>
<path d="M223.038 29.1359C223.038 27.5489 221.001 27.4099 220.08 28.3084C217.866 30.467 214.606 31.2753 210.246 30.4241C202.666 28.9451 202.599 20.0605 207.781 17.5262C210.585 16.1551 213.911 17.7784 215.176 18.7501C216.276 19.5954 218.381 20.7172 218.27 19.3062C218.035 16.3023 212.148 9.86921 204.26 13.9366C196.372 18.0039 196.424 27.1836 196.424 28.8475V34.209C196.424 35.8426 197.766 37.1279 199.399 37.1279H220.106C221.74 37.1279 223.047 35.8426 223.047 34.209C223.047 34.209 223.044 29.1403 223.038 29.1359Z" fill="#20ECC7"/>
</svg>
