<svg width="512" height="512" viewBox="0 0 512 512" fill="none" xmlns="http://www.w3.org/2000/svg">
<mask id="mask0_4728_54" style="mask-type:luminance" maskUnits="userSpaceOnUse" x="0" y="0" width="512" height="512">
<path d="M448 0H64C28.6538 0 0 28.6538 0 64V448C0 483.346 28.6538 512 64 512H448C483.346 512 512 483.346 512 448V64C512 28.6538 483.346 0 448 0Z" fill="white"/>
</mask>
<g mask="url(#mask0_4728_54)">
<path d="M512 0H0V512H512V0Z" fill="#00F5DC"/>
<path d="M415.704 199.631C415.017 195.987 415.017 195.987 415.017 195.987C414.05 192.042 409.692 188.814 405.333 188.813L299.672 188.804C295.312 188.803 290.646 192.2 289.303 196.352L266.853 265.74C266.19 267.789 265.319 270.314 266.282 271.678C267.271 273.077 270.131 273.289 272.339 273.289H315.357C315.357 273.289 317.367 273.273 317.634 274.67C317.92 276.152 316.379 277.75 316.379 277.75C281.196 314.772 246.022 351.802 210.807 388.794C210.807 388.794 210.411 389.241 209.947 389.67C209.679 389.918 209.421 390.134 209.176 390.326C206.478 392.424 205.202 391.251 206.322 387.411C213.894 361.433 221.477 335.459 229.037 309.477C229.23 308.815 229.679 306.772 229.001 305.739C228.357 304.758 227.271 304.573 226.053 304.573C224.733 304.573 223.179 304.573 221.544 304.573H180.572C176.212 304.573 174.749 302.363 177.32 299.662C235.866 238.157 294.351 176.596 352.848 115.043C361.412 106.033 339.558 98.4824 334.615 96.4159C313.19 87.4574 289.933 84.2699 266.44 86.3929C259.816 86.9919 253.188 88.0099 246.597 89.4384C228.809 93.2964 211.389 100.088 194.992 109.501C184.754 115.376 174.958 122.258 165.752 130.045C144.068 148.381 125.872 171.557 112.943 198.394C106.521 211.725 101.784 225.192 98.58 238.521C91.8645 266.462 91.9195 293.896 97.634 318.581C101.433 335.007 107.755 350.324 116.33 363.926C121.318 371.849 127.102 379.204 133.611 385.898C142.5 395.037 152.804 402.974 164.469 409.388C170.285 412.588 176.255 415.303 182.333 417.566C191.707 421.052 201.368 423.459 211.193 424.848C265.249 432.471 328.114 408.661 371.549 356.448C379.862 346.455 387.102 335.886 393.257 324.912C401.338 310.506 407.538 295.4 411.78 280C415.317 267.158 417.485 254.13 418.247 241.168C419.064 227.301 418.304 213.286 415.704 199.631Z" fill="#21201C"/>
</g>
</svg>
