<svg xmlns="http://www.w3.org/2000/svg" width="512" height="512" viewBox="0 0 512 512">
  <g id="_512-icon" data-name="512-icon" transform="translate(-1677 -708)">
    <rect id="Rectangle_1" data-name="Rectangle 1" width="512" height="512" rx="111" transform="translate(1677 708)" fill="#141a19"/>
    <path id="logo-brand" d="M293.162,104.638c-.172-1.016-.347-2.031-.542-3.04l-.625-3.251c-.878-3.52-4.835-6.4-8.792-6.4l-95.941-.008a10.559,10.559,0,0,0-9.415,6.735l-20.384,61.91c-.6,1.828-1.393,4.08-.519,5.3.9,1.248,3.494,1.438,5.5,1.438H201.5s1.825-.015,2.068,1.231c.26,1.323-1.139,2.748-1.139,2.748l-68.854,71.192c-2.409,2.491-6.615,6.835-9.344,9.654l-17.662,18.231s-.361.4-.782.781c-.243.221-.476.415-.7.585-2.45,1.872-3.609.825-2.592-2.6l8.987-30.3c1.11-3.737,2.922-9.855,4.032-13.593l5.147-17.353c.863-2.911,1.843-6.211,2.459-8.292.175-.591.583-2.414-.033-3.335a2.92,2.92,0,0,0-2.676-1.041h-41.3c-3.959,0-5.288-1.972-2.954-4.381l9.209-9.506L114.3,151.487c2.731-2.819,6.936-7.164,9.346-9.655s6.615-6.838,9.343-9.66l4.884-5.05,9.921-10.259L157.814,106.5l9.521-9.847c2.509-2.593,5.22-5.4,6.023-6.228l6.422-6.641,55.765-57.658a5.436,5.436,0,0,0-1.183-8.815,134.487,134.487,0,0,0-15.373-7.8,131.584,131.584,0,0,0-61.9-8.943,150.441,150.441,0,0,0-18.017,2.718,165.994,165.994,0,0,0-46.858,17.9A179.614,179.614,0,0,0,65.66,39.512a185.456,185.456,0,0,0-47.951,60.982A176.689,176.689,0,0,0,4.667,136.3c-6.1,24.929-6.048,49.407-.859,71.431a129.925,129.925,0,0,0,16.976,40.458q.712,1.111,1.451,2.207A118.774,118.774,0,0,0,64.5,288.749a122.905,122.905,0,0,0,16.221,7.3q4.7,1.718,9.506,3.051a128.647,128.647,0,0,0,16.7,3.445c49.083,6.8,106.165-14.442,145.605-61.028a187.067,187.067,0,0,0,19.71-28.137,177.61,177.61,0,0,0,16.819-40.071,164.988,164.988,0,0,0,5.873-34.646A150.035,150.035,0,0,0,293.162,104.638Z" transform="translate(1785.396 812.108)" fill="#20ecc7"/>
  </g>
</svg>
