<svg width="16" height="16" viewBox="0 0 16 16" fill="none" xmlns="http://www.w3.org/2000/svg">
<path d="M15.8891 5.51113C15.8797 5.45766 15.8702 5.40419 15.8596 5.35105C15.8258 5.17983 15.8258 5.17983 15.8258 5.17983C15.7782 4.99443 15.5637 4.84271 15.3492 4.84271L10.1493 4.84226C9.93474 4.8422 9.70515 5.00189 9.63904 5.19696L8.53425 8.45771C8.50161 8.55398 8.45874 8.67263 8.5061 8.73673C8.55476 8.80247 8.69549 8.81247 8.80416 8.81247H10.9212C10.9212 8.81247 11.0201 8.81168 11.0333 8.87731C11.0473 8.947 10.9715 9.02207 10.9715 9.02207L7.23977 12.7717C7.10921 12.9029 6.88122 13.1317 6.73328 13.2801L5.77606 14.2403C5.77606 14.2403 5.75649 14.2613 5.73367 14.2815C5.72048 14.2931 5.70783 14.3033 5.69577 14.3123C5.56297 14.4109 5.50018 14.3557 5.55528 14.1753L6.04238 12.5796C6.10251 12.3828 6.20072 12.0605 6.26091 11.8637L6.53987 10.9497C6.58664 10.7964 6.63974 10.6226 6.67315 10.513C6.68267 10.4818 6.70478 10.3859 6.67137 10.3373C6.63968 10.2912 6.58629 10.2825 6.52633 10.2825C6.46135 10.2825 6.38484 10.2825 6.30443 10.2825H4.28808C4.0735 10.2825 4.00149 10.1787 4.12799 10.0518C4.2545 9.9249 4.4791 9.69959 4.6271 9.55109L6.19475 7.97866C6.34274 7.83016 6.57062 7.60135 6.70129 7.47015C6.8319 7.3389 7.05978 7.10997 7.2076 6.96136L7.47232 6.69535C7.62025 6.54674 7.86226 6.30357 8.01008 6.15502L8.55334 5.60926C8.70116 5.46065 8.93347 5.22726 9.06941 5.09064C9.2054 4.95401 9.35233 4.80642 9.39585 4.76262C9.43937 4.71887 9.59594 4.5615 9.74388 4.41283L12.7663 1.37608C12.9142 1.22746 12.8853 1.01856 12.7021 0.911779C12.7021 0.911779 12.2747 0.662658 11.869 0.500717C10.8146 0.079746 9.67003 -0.0700533 8.51385 0.0297093C8.18788 0.0578648 7.86173 0.105703 7.53736 0.172839C6.66197 0.354123 5.80462 0.673274 4.99771 1.11565C4.49383 1.39173 4.01176 1.71514 3.55871 2.08103C2.4916 2.9427 1.59609 4.03179 0.959832 5.29289C0.643742 5.91936 0.410638 6.55223 0.25298 7.17859C-0.0775075 8.49157 -0.0747994 9.78082 0.206423 10.9408C0.39339 11.7128 0.704519 12.4325 1.12652 13.0717C1.15226 13.1107 1.17859 13.1495 1.20519 13.1879C1.43229 13.516 1.69021 13.8226 1.97699 14.1042C2.41445 14.5337 2.92154 14.9066 3.49559 15.2081C3.78182 15.3585 4.07561 15.486 4.37474 15.5924C4.54467 15.6527 4.7165 15.7064 4.88992 15.7531C5.18727 15.8333 5.48965 15.8934 5.79504 15.9346C8.45525 16.2928 11.549 15.1739 13.6867 12.7203C14.0957 12.2507 14.452 11.754 14.7549 11.2383C15.1526 10.5613 15.4577 9.85147 15.6665 9.12777C15.8406 8.5243 15.9472 7.91213 15.9848 7.303C16.0222 6.69727 15.9909 6.09589 15.8891 5.51113Z" fill="#20ECC7"/>
</svg>
