<svg width="300" height="209" viewBox="0 0 300 209" fill="none" xmlns="http://www.w3.org/2000/svg">
<path d="M283.313 170.655C279.124 181.809 274.351 193.303 267.435 202.898H6.57719C1.41458 192.037 0.732733 179.13 7.35646 169.34C18.4122 152.927 44.1766 151.368 54.5018 134.468C61.0768 123.753 59.3722 110.261 58.9339 97.6955C58.4955 85.1783 60.6872 70.6155 71.402 64.089C84.1138 56.345 101.647 64.3326 115.089 57.8548C123.564 53.7636 128.386 44.948 133.987 37.35C153.809 10.3675 189.265 -4.19531 222.287 1.06482C255.357 6.32496 284.53 31.1645 295.002 62.9688C306.544 97.939 296.17 136.124 283.313 170.655Z" fill="#F8F8F8"/>
<path fill-rule="evenodd" clip-rule="evenodd" d="M2.6709 208.404H31.0653C32.5264 208.404 33.744 207.187 33.744 205.726C33.744 204.216 32.5264 203.047 31.0653 203.047H2.6709C1.20978 203.047 -0.0078125 204.216 -0.0078125 205.726C-0.0078125 207.187 1.20978 208.404 2.6709 208.404ZM46.6553 208.404H260.124C261.585 208.404 262.803 207.236 262.803 205.726C262.803 204.264 261.585 203.047 260.124 203.047H46.6553C45.1455 203.047 43.9766 204.264 43.9766 205.726C43.9766 207.236 45.1455 208.404 46.6553 208.404Z" fill="#6C757D"/>
<path d="M198.907 86.8351C196.52 93.0206 174.165 91.2673 163.158 90.0009C162.087 89.8548 161.161 89.7574 160.382 89.66C158.288 89.3678 157.07 89.173 157.07 89.173V77.7273C157.07 77.7273 157.703 77.1915 158.872 76.2174C159.359 75.7953 159.944 75.3083 160.626 74.7563C169.003 67.8889 189.41 52.0111 193.793 57.6121C195.936 60.437 197.689 64.2847 198.81 68.4246C199.491 70.8112 199.93 73.2464 200.125 75.6817C200.465 79.7242 200.076 83.6693 198.907 86.8351Z" fill="#ADB5BD"/>
<path d="M165.397 83.5751C165.397 85.9616 164.521 87.5202 162.913 88.6404C161.89 88.543 161.16 89.7606 160.381 89.6632C158.238 91.9037 154.975 93.3161 151.273 93.3161C144.844 93.3161 139.633 88.9814 139.633 83.5751C139.633 78.2176 144.844 73.8828 151.273 73.8828C154.195 73.8828 156.825 74.7595 158.871 76.2207C159.358 75.7823 159.212 76.2207 159.894 75.6849C162.816 77.8279 165.397 80.0684 165.397 83.5751Z" fill="#495057"/>
<path d="M205.967 203.047H96.5785C92.4387 203.047 89.0781 199.686 89.0781 195.546V110.848C89.0781 106.708 92.4387 103.348 96.5785 103.348H205.967C210.107 103.348 213.468 106.708 213.468 110.848V195.546C213.468 199.686 210.107 203.047 205.967 203.047Z" fill="#DEE2E6"/>
<path d="M213.468 131.448H89.0781V123.898H213.468V131.448Z" fill="#BCB9B9"/>
<path d="M191.017 59.2667C191.602 60.0946 186.585 64.4781 179.864 68.959C173.094 73.4885 167.152 76.4595 166.617 75.6315C166.032 74.7548 171.049 70.4201 177.77 65.8905C184.54 61.361 190.433 58.39 191.017 59.2667Z" fill="#495057"/>
<path d="M103.633 86.8351C106.02 93.0206 128.375 91.2673 139.382 90.0009C140.453 89.8548 141.379 89.7574 142.158 89.66C144.252 89.3678 145.47 89.173 145.47 89.173V77.7273C145.47 77.7273 144.837 77.1915 143.668 76.2174C143.181 75.7953 142.596 75.3083 141.914 74.7563C133.537 67.8889 113.13 52.0111 108.747 57.6121C106.604 60.437 104.851 64.2847 103.731 68.4246C103.049 70.8112 102.61 73.2464 102.416 75.6817C102.075 79.7242 102.464 83.6693 103.633 86.8351Z" fill="#ADB5BD"/>
<path d="M111.531 59.2667C110.946 60.0946 115.963 64.4781 122.684 68.959C129.454 73.4885 135.396 76.4595 135.931 75.6315C136.516 74.7548 131.499 70.4201 124.778 65.8905C118.008 61.361 112.115 58.39 111.531 59.2667Z" fill="#495057"/>
<path d="M137.148 83.5751C137.148 85.9616 138.025 87.5202 139.632 88.6404C140.655 88.543 141.386 89.7606 142.165 89.6632C144.308 91.9037 147.571 93.3161 151.273 93.3161C157.701 93.3161 162.913 88.9814 162.913 83.5751C162.913 78.2176 157.701 73.8828 151.273 73.8828C148.35 73.8828 145.72 74.7595 143.675 76.2207C143.188 75.7823 143.334 76.2207 142.652 75.6849C139.73 77.8279 137.148 80.0684 137.148 83.5751Z" fill="#495057"/>
<path d="M162.913 83.5751C162.913 85.8642 161.939 88.0073 160.381 89.6632C158.238 91.9037 154.975 93.3161 151.273 93.3161C144.844 93.3161 139.633 88.9814 139.633 83.5751C139.633 78.2176 144.844 73.8828 151.273 73.8828C154.195 73.8828 156.825 74.7595 158.871 76.2207C161.355 78.0227 162.913 80.6528 162.913 83.5751Z" fill="#ADB5BD"/>
<path d="M159.998 202.898H142.562V88.5391H159.998V202.898Z" fill="#ADB5BD"/>
<path d="M214.056 123.899H88.4974C84.9907 123.899 82.1172 121.026 82.1172 117.519V95.0171C82.1172 91.5103 84.9907 88.6367 88.4974 88.6367H214.056C217.563 88.6367 220.436 91.5103 220.436 95.0171V117.519C220.436 121.026 217.563 123.899 214.056 123.899Z" fill="#DEE2E6"/>
<path d="M159.991 131.448H142.555V123.898H159.991V131.448Z" fill="#495057"/>
</svg>
