<svg width="25" height="26" viewBox="0 0 25 26" fill="none" xmlns="http://www.w3.org/2000/svg">
    <path d="M4.16797 6.75H20.8346M16.668 6.75L16.3861 5.90424C16.1129 5.08464 15.9762 4.67483 15.7229 4.37185C15.4991 4.1043 15.2118 3.89721 14.8872 3.76956C14.5196 3.625 14.0878 3.625 13.2238 3.625H11.7788C10.9148 3.625 10.483 3.625 10.1154 3.76956C9.7908 3.89721 9.50347 4.1043 9.27973 4.37185C9.02635 4.67483 8.88976 5.08464 8.61655 5.90424L8.33464 6.75M18.7513 6.75V17.375C18.7513 19.1252 18.7513 20.0002 18.4107 20.6687C18.1111 21.2568 17.6331 21.7348 17.0451 22.0344C16.3765 22.375 15.5015 22.375 13.7513 22.375H11.2513C9.50114 22.375 8.62605 22.375 7.95758 22.0344C7.36957 21.7348 6.89151 21.2568 6.59191 20.6687C6.2513 20.0002 6.2513 19.1252 6.2513 17.375V6.75M14.5846 10.9167V18.2083M10.418 10.9167V18.2083" stroke="#495057" stroke-width="2" stroke-linecap="round" stroke-linejoin="round"/>
</svg>
