<svg width="200" height="200" viewBox="0 0 200 200" fill="none" xmlns="http://www.w3.org/2000/svg">
    <path d="M93.4223 6.57774C97.055 2.94496 102.945 2.94495 106.578 6.57774L193.422 93.4223C197.055 97.055 197.055 102.945 193.422 106.578L106.578 193.422C102.945 197.055 97.055 197.055 93.4223 193.422L6.57774 106.578C2.94496 102.945 2.94496 97.055 6.57774 93.4223L93.4223 6.57774Z" fill="#CED4DA"/>
    <path d="M94.7378 25.2622C97.644 22.356 102.356 22.356 105.262 25.2622L174.738 94.7378C177.644 97.644 177.644 102.356 174.738 105.262L105.262 174.738C102.356 177.644 97.644 177.644 94.7378 174.738L25.2622 105.262C22.356 102.356 22.356 97.644 25.2622 94.7378L94.7378 25.2622Z" fill="#F4F4F4"/>
    <path d="M108.838 132.791C108.838 137.8 104.777 141.86 99.7681 141.86C94.759 141.86 90.6982 137.8 90.6982 132.791C90.6982 127.781 94.759 123.721 99.7681 123.721C104.777 123.721 108.838 127.781 108.838 132.791Z" fill="url(#paint0_linear_23801_51180)"/>
    <path d="M99.7681 51.627C94.759 51.627 90.6982 55.6877 90.6982 60.6968L90.7766 61.8941L93.9541 110.465C93.9541 113.676 96.5571 116.279 99.7681 116.279C102.979 116.279 105.582 113.676 105.582 110.465L108.76 61.8941L108.838 60.6968C108.838 55.6877 104.777 51.627 99.7681 51.627Z" fill="url(#paint1_linear_23801_51180)"/>
    <defs>
        <linearGradient id="paint0_linear_23801_51180" x1="100.001" y1="51.627" x2="100.001" y2="141.86" gradientUnits="userSpaceOnUse">
            <stop stop-color="#DF3634"/>
            <stop offset="1" stop-color="#DF3634" stop-opacity="0.6"/>
        </linearGradient>
        <linearGradient id="paint1_linear_23801_51180" x1="100.001" y1="51.627" x2="100.001" y2="141.86" gradientUnits="userSpaceOnUse">
            <stop stop-color="#DF3634"/>
            <stop offset="1" stop-color="#DF3634" stop-opacity="0.6"/>
        </linearGradient>
    </defs>
</svg>
