<svg width="30" height="30" viewBox="0 0 30 30" fill="none" xmlns="http://www.w3.org/2000/svg">
<path fill-rule="evenodd" clip-rule="evenodd" d="M15 24C19.9706 24 24 19.9706 24 15C24 10.0294 19.9706 6 15 6C10.0294 6 6 10.0294 6 15C6 19.9706 10.0294 24 15 24ZM18.8732 13.6159C19.0794 12.3143 18.1803 11.6359 16.9322 11.178L17.3709 9.40745L16.3814 9.16221L15.9539 10.8875C15.8891 10.871 15.8248 10.8544 15.7607 10.8378L15.7607 10.8378L15.7606 10.8378C15.5653 10.7873 15.3721 10.7373 15.1744 10.6943L15.6018 8.96901L14.5848 8.71696L14.1573 10.4423L12.1386 9.94193L11.847 11.1222C11.847 11.1222 12.5955 11.285 12.5682 11.301C12.9689 11.409 13.0369 11.6928 13.0149 11.9097L12.5063 13.9166L11.8075 16.7404C11.7525 16.8744 11.6185 17.0659 11.3443 16.9993C11.3557 17.012 10.6164 16.8087 10.6164 16.8087L10.1296 18.0541L12.0883 18.5875L11.652 20.3489L12.6352 20.5926L13.0716 18.8312C13.2299 18.8767 13.3899 18.9139 13.5447 18.95L13.5448 18.95L13.5448 18.95C13.6606 18.9769 13.7736 19.0032 13.8807 19.0318L13.4443 20.7931L14.4294 21.0373L14.8658 19.2759C16.5611 19.5993 17.841 19.448 18.4129 17.7791C18.8726 16.4484 18.4427 15.6898 17.5496 15.19C18.2207 15.0265 18.7174 14.5635 18.8732 13.6159ZM14.2829 13.9666L14.2336 13.9518L14.7615 11.8347C14.8178 11.8493 14.8899 11.8654 14.9732 11.8841C15.6791 12.0424 17.1984 12.383 16.9233 13.498C16.6279 14.6711 14.8743 14.1443 14.2829 13.9666ZM13.3698 17.4046L13.4555 17.43C14.1841 17.6467 16.2516 18.2615 16.532 17.0972C16.8209 15.9759 14.9622 15.5393 14.1301 15.3437C14.0389 15.3223 13.96 15.3038 13.8977 15.2876L13.3698 17.4046Z" fill="#212529"/>
</svg>
