<svg width="200" height="150" viewBox="0 0 200 150" fill="none" xmlns="http://www.w3.org/2000/svg">
<path d="M200 130.96H0V131.06H200V130.96Z" fill="#EBEBEB"/>
<path d="M179.96 137.396H166.712V137.496H179.96V137.396Z" fill="#EBEBEB"/>
<path d="M132.488 138.484H129.012V138.584H132.488V138.484Z" fill="#EBEBEB"/>
<path d="M166.312 133.684H158.636V133.784H166.312V133.684Z" fill="#EBEBEB"/>
<path d="M38.26 134.356H20.984V134.456H38.26V134.356Z" fill="#EBEBEB"/>
<path d="M44.356 134.356H41.824V134.456H44.356V134.356Z" fill="#EBEBEB"/>
<path d="M90.06 136.044H52.588V136.144H90.06V136.044Z" fill="#EBEBEB"/>
<path d="M94.8 113.12H17.564C16.9589 113.119 16.379 112.878 15.9516 112.45C15.5241 112.021 15.284 111.441 15.284 110.836V2.264C15.2893 1.66241 15.5317 1.08719 15.9586 0.663287C16.3855 0.239383 16.9624 0.00103056 17.564 0H94.8C95.4057 0 95.9867 0.240635 96.415 0.668968C96.8434 1.0973 97.084 1.67825 97.084 2.284V110.836C97.084 111.442 96.8434 112.023 96.415 112.451C95.9867 112.879 95.4057 113.12 94.8 113.12ZM17.564 0.0800003C16.9855 0.0810599 16.431 0.311626 16.0223 0.721091C15.6135 1.13056 15.384 1.68546 15.384 2.264V110.836C15.384 111.415 15.6135 111.969 16.0223 112.379C16.431 112.788 16.9855 113.019 17.564 113.02H94.8C95.3789 113.019 95.9338 112.789 96.3431 112.379C96.7525 111.97 96.9829 111.415 96.984 110.836V2.264C96.9829 1.68509 96.7525 1.1302 96.3431 0.720847C95.9338 0.311496 95.3789 0.0810577 94.8 0.0800003H17.564Z" fill="#EBEBEB"/>
<path d="M181.324 113.12H104.084C103.479 113.119 102.898 112.878 102.47 112.45C102.042 112.022 101.801 111.441 101.8 110.836V2.264C101.806 1.66205 102.05 1.08683 102.477 0.663037C102.905 0.239243 103.482 0.00101932 104.084 0H181.324C181.925 0.0020818 182.501 0.2409 182.927 0.664691C183.353 1.08848 183.595 1.6631 183.6 2.264V110.836C183.6 111.44 183.36 112.02 182.934 112.448C182.507 112.876 181.928 113.118 181.324 113.12ZM104.084 0.0800003C103.505 0.0810577 102.95 0.311496 102.541 0.720847C102.131 1.1302 101.901 1.68509 101.9 2.264V110.836C101.901 111.415 102.131 111.97 102.541 112.379C102.95 112.789 103.505 113.019 104.084 113.02H181.324C181.903 113.019 182.458 112.789 182.867 112.379C183.276 111.97 183.507 111.415 183.508 110.836V2.264C183.507 1.68509 183.276 1.1302 182.867 0.720847C182.458 0.311496 181.903 0.0810577 181.324 0.0800003H104.084Z" fill="#EBEBEB"/>
<path d="M157.232 8.46399H40.516V63.072H157.232V8.46399Z" fill="#E6E6E6"/>
<path d="M158.988 8.46399H41.336V63.072H158.988V8.46399Z" fill="#F0F0F0"/>
<path d="M157.232 63.072H40.516V65.856H157.232V63.072Z" fill="#E6E6E6"/>
<path d="M161.916 63.072H44.264V65.856H161.916V63.072Z" fill="#F0F0F0"/>
<path d="M156.528 60.612V10.928L43.8 10.928V60.612L156.528 60.612Z" fill="#FAFAFA"/>
<path d="M55.892 60.612L62.744 10.928H73.436L66.584 60.612H55.892Z" fill="white"/>
<path d="M44.936 58.16C44.8893 58.16 44.8446 58.1415 44.8116 58.1085C44.7786 58.0755 44.76 58.0307 44.76 57.9841V12.5281C44.76 12.4814 44.7786 12.4366 44.8116 12.4036C44.8446 12.3706 44.8893 12.3521 44.936 12.3521C44.9591 12.3521 44.982 12.3566 45.0034 12.3654C45.0247 12.3743 45.0441 12.3873 45.0605 12.4036C45.0768 12.4199 45.0898 12.4393 45.0986 12.4607C45.1075 12.4821 45.112 12.5049 45.112 12.5281V58.0001C45.1089 58.0443 45.0889 58.0856 45.0561 58.1154C45.0233 58.1452 44.9803 58.1612 44.936 58.16Z" fill="#F0F0F0"/>
<path d="M68.88 60.612L75.732 10.928H79.9L73.048 60.612H68.88Z" fill="white"/>
<path d="M156.528 60.612V10.928H156.216V60.612H156.528Z" fill="#E6E6E6"/>
<path opacity="0.6" d="M159.568 14.64H42.856L42.628 11.884H159.344L159.568 14.64Z" fill="#EBEBEB"/>
<path opacity="0.6" d="M159.568 19.156H42.856L42.628 16.4H159.344L159.568 19.156Z" fill="#EBEBEB"/>
<path opacity="0.6" d="M159.568 23.676H42.856L42.628 20.92H159.344L159.568 23.676Z" fill="#EBEBEB"/>
<path opacity="0.6" d="M159.568 28.192H42.856L42.628 25.436H159.344L159.568 28.192Z" fill="#EBEBEB"/>
<path opacity="0.6" d="M159.568 32.7121H42.856L42.628 29.9561H159.344L159.568 32.7121Z" fill="#EBEBEB"/>
<path opacity="0.6" d="M159.568 37.2281H42.856L42.628 34.472H159.344L159.568 37.2281Z" fill="#EBEBEB"/>
<path d="M175.6 76.8H157.788V130.96H175.6V76.8Z" fill="#E6E6E6"/>
<path d="M170.844 130.96H175.6V123.484H165.856L170.844 130.96Z" fill="#FAFAFA"/>
<path d="M127.036 76.8H109.224V130.96H127.036V76.8Z" fill="#E6E6E6"/>
<path d="M175.6 76.8H122.884V128.388H175.6V76.8Z" fill="#FAFAFA"/>
<path d="M127.64 130.96H122.884V123.484H132.628L127.64 130.96Z" fill="#FAFAFA"/>
<path d="M171.908 96.024H126.572V108.932H171.908V96.024Z" fill="#F0F0F0"/>
<path d="M171.908 111.692H126.572V124.6H171.908V111.692Z" fill="#F0F0F0"/>
<path d="M133.696 94.9041H164.8V95.532C164.8 96.0275 164.603 96.5026 164.253 96.8529C163.903 97.2032 163.427 97.4 162.932 97.4H135.568C135.073 97.4 134.597 97.2032 134.247 96.8529C133.897 96.5026 133.7 96.0275 133.7 95.532V94.9041H133.696Z" fill="#FAFAFA"/>
<path d="M171.908 80.3521H126.572V93.26H171.908V80.3521Z" fill="#F0F0F0"/>
<path d="M133.696 79.236H164.8V79.864C164.8 80.3594 164.603 80.8345 164.253 81.1848C163.903 81.5352 163.427 81.732 162.932 81.732H135.568C135.073 81.732 134.597 81.5352 134.247 81.1848C133.897 80.8345 133.7 80.3594 133.7 79.864V79.236H133.696Z" fill="#FAFAFA"/>
<path d="M133.696 110.572H164.8V111.2C164.8 111.695 164.603 112.171 164.253 112.521C163.903 112.871 163.427 113.068 162.932 113.068H135.568C135.073 113.068 134.597 112.871 134.247 112.521C133.897 112.171 133.7 111.695 133.7 111.2V110.572H133.696Z" fill="#FAFAFA"/>
<path d="M21.368 88.348C22.36 85.496 30.168 89.372 33.368 94.092C35.484 97.236 36.776 100.592 37.368 105.1C37.296 99.956 37.216 94.432 37.136 89.216C36.492 87.916 35.024 84.916 33.972 82.54C30.452 74.612 22.084 71.66 19.172 66.656C15.384 60.096 15.408 50.256 18.632 46.712C21.432 43.624 30.712 64.484 31.76 66.816C35.36 74.816 36.4 80.78 37.072 86.544C36.996 81.644 36.924 77.148 36.864 73.676C36.668 62.356 36.42 58.716 36.308 57.596C35.908 57.048 35.464 56.396 35.196 56.068C32.952 53.176 27.968 49.736 25.48 45.532C21.844 39.396 22.432 32.052 24.98 29.316C27.668 26.456 32.4 33.2 34.884 39.912C37.368 46.624 36.316 53.016 37.02 58.58C37.168 59.668 37.316 63.812 37.46 69.56C38.22 63.376 39.732 59.232 42.532 55.372C45.98 50.624 48.956 44.844 51.796 45.592C54.636 46.34 53.108 53.992 50.86 59.36C48.86 64.14 38.988 68.912 37.532 72.756C37.704 80.548 37.856 90.416 37.968 99.604C38.744 94.856 38.208 94.46 41.4 87.204C43.296 82.884 51.068 77.56 51.996 80.528C52.924 83.496 51.512 89.104 48.58 93.032C46.212 96.204 40.98 96.2 39.744 98.164C39.46 98.624 38.544 100.384 37.988 101.392C38.112 112.612 38.172 122.512 38.108 125.888L37.596 125.924C37.624 125.052 37.56 119.344 37.46 111.792C36.184 107.792 27.6 105.432 24.948 101.252C22.172 96.868 20.176 91.764 21.368 88.348Z" fill="#E6E6E6"/>
<path d="M29.44 130.96H45.92C46.3566 130.96 46.7798 130.809 47.1179 130.532C47.4561 130.256 47.6885 129.872 47.776 129.444L48.944 123.676H26.4L27.6 129.444C27.687 129.869 27.9171 130.252 28.2519 130.527C28.5868 130.803 29.0062 130.956 29.44 130.96Z" fill="#F0F0F0"/>
<path d="M25.944 125.912H49.416C49.6882 125.912 49.9508 125.811 50.1537 125.63C50.3566 125.448 50.4855 125.199 50.516 124.928L50.996 120.664C51.0128 120.509 50.997 120.353 50.9494 120.205C50.9018 120.057 50.8236 119.921 50.7198 119.805C50.6161 119.689 50.4891 119.596 50.3472 119.533C50.2052 119.469 50.0515 119.436 49.896 119.436H25.464C25.3085 119.436 25.1548 119.469 25.0128 119.533C24.8709 119.596 24.7439 119.689 24.6402 119.805C24.5364 119.921 24.4582 120.057 24.4106 120.205C24.363 120.353 24.3472 120.509 24.364 120.664L24.844 124.928C24.8745 125.199 25.0034 125.448 25.2063 125.63C25.4092 125.811 25.6718 125.912 25.944 125.912Z" fill="#F0F0F0"/>
<path d="M71.136 105.048H57.052V130.96H71.136V105.048Z" fill="#E0E0E0"/>
<path d="M107.032 130.96H59.876L54.92 95.8H102.076L107.032 130.96Z" fill="#E6E6E6"/>
<path d="M113.912 130.96H61.748L56.796 95.8H108.956L113.912 130.96Z" fill="#F0F0F0"/>
<path d="M66.852 125.464L62.68 101.296H103.852L108.024 125.464H66.852Z" fill="white"/>
<path d="M84.544 125.464L70.552 101.296H74.94L88.936 125.464H84.544Z" fill="#FAFAFA"/>
<path d="M90.796 125.464L76.8 101.296H84.288L98.28 125.464H90.796Z" fill="#FAFAFA"/>
<path d="M99.9998 149.024C142.833 149.024 177.556 146.997 177.556 144.496C177.556 141.995 142.833 139.968 99.9998 139.968C57.1669 139.968 22.4438 141.995 22.4438 144.496C22.4438 146.997 57.1669 149.024 99.9998 149.024Z" fill="#F5F5F5"/>
<path d="M30.9079 66.612C30.8649 66.6121 30.8234 66.5962 30.7916 66.5674C30.7598 66.5385 30.7399 66.4987 30.7359 66.456L29.8479 55.776C29.8456 55.7327 29.8602 55.6902 29.8885 55.6574C29.9168 55.6246 29.9567 55.604 29.9999 55.6C30.0449 55.5966 30.0894 55.6111 30.1238 55.6403C30.1582 55.6695 30.1798 55.711 30.1839 55.756L31.0719 66.436C31.0752 66.481 31.0607 66.5255 31.0315 66.5599C31.0024 66.5943 30.9608 66.6159 30.9159 66.62L30.9079 66.612Z" fill="#20ECC7"/>
<path d="M31.4359 72.956C31.3929 72.9562 31.3515 72.9403 31.3196 72.9114C31.2878 72.8825 31.2679 72.8428 31.2639 72.8L30.9959 69.568C30.9937 69.5456 30.9961 69.523 31.0028 69.5015C31.0095 69.48 31.0204 69.4601 31.035 69.443C31.0495 69.4258 31.0674 69.4117 31.0875 69.4016C31.1075 69.3915 31.1295 69.3855 31.1519 69.384C31.1743 69.3818 31.1969 69.3841 31.2184 69.3908C31.2399 69.3975 31.2598 69.4085 31.2769 69.423C31.2941 69.4376 31.3082 69.4554 31.3183 69.4755C31.3284 69.4956 31.3344 69.5175 31.3359 69.54L31.6039 72.772C31.6073 72.817 31.5928 72.8615 31.5636 72.8959C31.5344 72.9303 31.4929 72.9519 31.4479 72.956H31.4359Z" fill="#20ECC7"/>
<path d="M142.489 118H40.8641C39.5837 117.975 38.357 117.481 37.4164 116.612C36.4757 115.743 35.8864 114.559 35.7602 113.285L30.0362 44.4831C29.975 43.8821 30.0417 43.275 30.2318 42.7017C30.422 42.1284 30.7312 41.6017 31.1394 41.1564C31.5475 40.7111 32.0452 40.3572 32.5999 40.1179C33.1545 39.8786 33.7535 39.7594 34.3575 39.768H135.977C137.258 39.793 138.486 40.2866 139.427 41.1555C140.368 42.0244 140.959 43.2083 141.086 44.4831L146.81 113.275C146.872 113.876 146.806 114.484 146.616 115.058C146.426 115.633 146.117 116.16 145.709 116.606C145.301 117.053 144.803 117.407 144.248 117.648C143.693 117.888 143.094 118.008 142.489 118Z" fill="white"/>
<path d="M142.467 118.194H40.8946C39.5649 118.173 38.2898 117.662 37.3126 116.76C36.3354 115.858 35.7245 114.628 35.5966 113.305L29.8755 44.5438C29.8177 43.9164 29.8916 43.2839 30.0924 42.6867C30.2931 42.0895 30.6163 41.5408 31.0414 41.0757C31.4642 40.6076 31.9813 40.2341 32.5586 39.9797C33.1359 39.7254 33.7605 39.596 34.3914 39.5999H135.958C137.294 39.6211 138.574 40.1352 139.553 41.0433C140.532 41.9514 141.14 43.1894 141.261 44.5192L146.977 113.275C147.041 113.902 146.971 114.535 146.772 115.133C146.573 115.732 146.25 116.281 145.824 116.745C145.398 117.21 144.879 117.579 144.3 117.829C143.722 118.078 143.097 118.203 142.467 118.194ZM34.3914 40.0132C33.8139 40.0038 33.2411 40.117 32.7107 40.3453C32.1802 40.5737 31.7043 40.9119 31.3142 41.3378C30.9241 41.7637 30.6288 42.2674 30.4478 42.8158C30.2668 43.3642 30.2042 43.9448 30.2641 44.5192L35.9852 113.27C36.1069 114.497 36.6752 115.637 37.5822 116.472C38.4892 117.307 39.6715 117.78 40.9044 117.801H142.467C143.043 117.809 143.614 117.696 144.143 117.468C144.672 117.24 145.147 116.902 145.536 116.478C145.926 116.053 146.221 115.551 146.402 115.004C146.584 114.457 146.647 113.878 146.589 113.305L140.868 44.5438C140.747 43.3163 140.179 42.1762 139.272 41.3407C138.365 40.5051 137.182 40.0326 135.949 40.0132H34.3914Z" fill="#20ECC7"/>
<path d="M135.895 39.3372H34.3541C33.7515 39.3287 33.1539 39.4476 32.6004 39.6861C32.047 39.9246 31.5501 40.2774 31.1425 40.7213C30.7348 41.1651 30.4256 41.6901 30.2349 42.2618C30.0442 42.8335 29.9765 43.4391 30.0361 44.0388H141C140.87 42.7667 140.28 41.5862 139.339 40.72C138.399 39.8538 137.174 39.3619 135.895 39.3372Z" fill="#20ECC7"/>
<path d="M35.4762 41.6921C35.4875 41.7975 35.4763 41.9041 35.4434 42.0049C35.4104 42.1056 35.3563 42.1982 35.2849 42.2765C35.2134 42.3548 35.1261 42.417 35.0287 42.459C34.9313 42.501 34.8262 42.5218 34.7202 42.5201C34.4955 42.5153 34.2803 42.4285 34.1152 42.2759C33.9501 42.1234 33.8466 41.9157 33.8242 41.6921C33.8135 41.5868 33.8251 41.4804 33.8583 41.3799C33.8916 41.2795 33.9456 41.1871 34.017 41.109C34.0883 41.0308 34.1754 40.9686 34.2724 40.9264C34.3695 40.8842 34.4743 40.8629 34.5802 40.8641C34.8054 40.8671 35.0216 40.9533 35.187 41.1062C35.3524 41.2591 35.4554 41.4677 35.4762 41.6921Z" fill="white"/>
<path d="M38.8361 41.6921C38.8475 41.7975 38.8363 41.9041 38.8033 42.0049C38.7703 42.1056 38.7163 42.1982 38.6448 42.2765C38.5733 42.3548 38.486 42.417 38.3887 42.459C38.2913 42.501 38.1862 42.5218 38.0801 42.5201C37.8582 42.5115 37.6469 42.423 37.4852 42.2708C37.3234 42.1186 37.2222 41.913 37.2001 41.6921C37.1894 41.5868 37.2011 41.4804 37.2343 41.3799C37.2675 41.2795 37.3216 41.1871 37.3929 41.109C37.4643 41.0308 37.5514 40.9686 37.6484 40.9264C37.7455 40.8842 37.8503 40.8629 37.9561 40.8641C38.1786 40.8709 38.3909 40.9589 38.5529 41.1114C38.715 41.2639 38.8157 41.4704 38.8361 41.6921Z" fill="white"/>
<path d="M42.1959 41.6921C42.2072 41.7975 42.1961 41.9041 42.1631 42.0049C42.1301 42.1056 42.0761 42.1982 42.0046 42.2765C41.9331 42.3548 41.8458 42.417 41.7484 42.459C41.6511 42.501 41.5459 42.5218 41.4399 42.5201C41.2152 42.5153 41 42.4285 40.8349 42.2759C40.6698 42.1234 40.5663 41.9157 40.5439 41.6921C40.5332 41.5868 40.5448 41.4804 40.5781 41.3799C40.6113 41.2795 40.6653 41.1871 40.7367 41.109C40.8081 41.0308 40.8951 40.9686 40.9922 40.9264C41.0892 40.8842 41.1941 40.8629 41.2999 40.8641C41.5251 40.8671 41.7413 40.9533 41.9067 41.1062C42.0722 41.2591 42.1752 41.4677 42.1959 41.6921Z" fill="white"/>
<path d="M79.999 63.1247L79.9682 60.1386C79.9543 58.7826 78.844 57.6946 77.4881 57.7085L51.35 57.9776C49.994 57.9916 48.906 59.1023 48.9199 60.4582L49.4634 113.246L117.075 112.55L116.562 62.7483L79.999 63.1247Z" fill="white"/>
<path d="M80.2159 63.1224L80.1851 60.1362C80.1711 58.7803 79.0609 57.6922 77.705 57.7062L51.5668 57.9753C50.2109 57.9893 49.1228 59.1 49.1368 60.4559L49.6803 113.244L117.292 112.548L116.779 62.7459L80.2159 63.1224Z" fill="#006452"/>
<path d="M51.4535 65.4822L51.945 113.221L114.577 112.576L114.083 64.6029L51.4535 65.4822Z" fill="#20ECC7"/>
<path d="M54.8921 65.4468L55.3836 113.185L118.016 112.54L117.522 64.5675L54.8921 65.4468Z" fill="#006452"/>
<path d="M120.028 62.7127L58.1523 63.3498C56.8821 63.3629 55.9557 64.2318 55.7856 65.4223L56.2772 113.176L123.809 112.48L123.329 65.9382C123.327 64.223 121.763 62.6949 120.028 62.7127Z" fill="white"/>
<path d="M110.834 53.8626L72.38 54.3662L72.7628 83.5899L111.216 83.0863L110.834 53.8626Z" fill="#EBF3FF"/>
<path d="M109.843 54.8294L73.3561 55.3073L73.708 82.1729L110.195 81.6951L109.843 54.8294Z" fill="#10CAA8"/>
<path d="M76.761 79.976L100.209 79.6688L87.2614 67.5012L76.761 79.976Z" fill="#E3EEFF"/>
<path d="M87.423 79.836L107.124 79.5781L96.3286 69.5229L87.423 79.836Z" fill="#E3EEFF"/>
<path d="M96.4952 66.5901C97.5447 65.5188 97.527 63.7995 96.4556 62.75C95.3843 61.7005 93.665 61.7182 92.6155 62.7895C91.566 63.8609 91.5837 65.5802 92.655 66.6297C93.7264 67.6792 95.4457 67.6615 96.4952 66.5901Z" fill="#E3EEFF"/>
<path d="M115.766 50.2996L80.1168 50.7809L80.5354 81.7833L116.185 81.302L115.766 50.2996Z" fill="#EBF3FF"/>
<path d="M114.748 51.3249L81.1227 51.7795L81.508 80.2802L115.133 79.8255L114.748 51.3249Z" fill="#10CAA8"/>
<path d="M97.8566 55.542L84.4647 55.6799L84.4768 56.8565L97.8687 56.7187L97.8566 55.542Z" fill="#CCE5FF"/>
<path d="M111.743 58.5769L84.4971 58.8574L84.5092 60.034L111.756 59.7535L111.743 58.5769Z" fill="#CCE5FF"/>
<path d="M111.777 61.8115L84.5306 62.092L84.5427 63.2687L111.789 62.9881L111.777 61.8115Z" fill="#CCE5FF"/>
<path d="M120.326 62.7098L58.4499 63.3469C57.1797 63.36 56.2533 64.2289 56.0832 65.4193L56.5748 113.173L124.106 112.478L123.627 65.9353C123.625 64.2201 122.061 62.6919 120.326 62.7098Z" fill="#20ECC7"/>
<path d="M56.2744 112.901L49.4606 112.971L49.4634 113.246L56.2772 113.176L56.2744 112.901Z" fill="white"/>
<path opacity="0.5" d="M49.1584 83.6429L51.6571 85.2365L55.0697 85.2014L55.9956 85.8368L55.9894 85.2327L123.521 84.5374L123.504 82.8775L49.1584 83.6429Z" fill="black"/>
<path d="M124.798 74.9399L48.1174 75.7294L48.2066 84.3936L124.887 83.604L124.798 74.9399Z" fill="#006452"/>
<path d="M124.798 74.9399L55.0206 75.6583L55.1098 84.3225L124.888 83.6041L124.798 74.9399Z" fill="#00866D"/>
<path d="M74.311 75.4596L74.4002 84.1207L80.463 84.0582L76.1227 75.4409L74.311 75.4596Z" fill="#0E0E0E"/>
<path d="M74.4957 75.4611L72.8854 75.4777L72.9746 84.1356L74.5848 84.119C75.1126 84.1136 75.5852 83.6329 75.9205 82.8305C76.2645 82.0466 76.4628 80.9597 76.4504 79.7609C76.4259 77.3823 75.5511 75.4502 74.4957 75.4611ZM74.3893 79.7821C74.3818 79.0591 74.6105 78.4668 74.9109 78.3683C75.2133 78.4606 75.4541 79.048 75.4616 79.771C75.4692 80.5136 75.2405 81.1054 74.9401 81.2035C74.6373 81.1116 74.3969 80.5246 74.3893 79.7821Z" fill="#2475B3"/>
<path d="M73.5867 75.4704L72.8854 75.4777L72.9746 84.1356L73.6758 84.1284C74.2284 84.1227 74.7228 83.6418 75.0741 82.8392C75.434 82.0551 75.6421 80.9681 75.6298 79.7693C75.6057 77.3908 74.6914 75.4591 73.5867 75.4704ZM74.1021 81.2126C73.7856 81.1204 73.5341 80.5335 73.5264 79.7914C73.519 79.0684 73.7584 78.476 74.0729 78.3773C74.3895 78.4695 74.8514 79.0547 74.8588 79.7777C74.866 80.5198 74.4163 81.1139 74.1021 81.2126Z" fill="#3F9EE6"/>
<path d="M73.7241 75.469L72.1138 75.4856L72.203 84.1436L73.8132 84.127C74.3409 84.1215 74.8136 83.6408 75.1489 82.8384C75.4929 82.0545 75.6912 80.9676 75.6788 79.7688C75.6543 77.3903 74.7795 75.4581 73.7241 75.469ZM73.6176 79.79C73.6102 79.067 73.8389 78.4747 74.1393 78.3762C74.4417 78.4685 74.6825 79.056 74.69 79.779C74.6976 80.5215 74.4689 81.1133 74.1685 81.2114C73.8657 81.1196 73.6253 80.5326 73.6176 79.79Z" fill="#2475B3"/>
<path d="M72.8155 75.4784L72.1142 75.4856L72.2033 84.1436L72.9046 84.1363C73.4572 84.1307 73.9516 83.6497 74.3029 82.8471C74.6628 82.063 74.8709 80.976 74.8585 79.7772C74.8345 77.3987 73.9202 75.467 72.8155 75.4784ZM73.5408 81.2183C73.2243 81.1262 72.9728 80.5393 72.9651 79.7972C72.9577 79.0742 73.1971 78.4818 73.5116 78.3831C73.8282 78.4753 74.0797 79.0626 74.0872 79.7856C74.0948 80.5277 73.8554 81.1197 73.5408 81.2183Z" fill="#61B3F2"/>
<path d="M73.8214 84.1834C73.8161 84.1834 73.8126 84.1835 73.8117 84.1835C73.7806 84.1825 73.7559 84.1565 73.7569 84.1254C73.7579 84.0943 73.7843 84.0697 73.815 84.0707C73.8185 84.0702 74.2105 84.0755 74.6183 83.6731C75.067 83.2304 75.5969 82.2302 75.5737 79.9773C75.5313 75.866 73.7337 75.5272 73.7154 75.5242C73.6847 75.5192 73.664 75.4901 73.6686 75.4595C73.6736 75.4288 73.7027 75.4081 73.7334 75.4126C73.7534 75.416 74.2261 75.4986 74.7051 76.1102C75.1401 76.6654 75.6639 77.7871 75.6864 79.9757C75.7101 82.2734 75.1591 83.3 74.6933 83.7571C74.2824 84.1604 73.8898 84.1827 73.8214 84.1834Z" fill="#1A5380"/>
<path d="M73.5406 81.1019C73.4644 81.1218 73.4083 81.1415 73.3321 81.1613C73.3514 81.1802 73.3514 81.1802 73.3323 81.1804C70.2779 82.1254 68.0429 84.9649 68.0776 88.3327L68.152 95.5655L65.7162 95.5906L65.6418 88.3578C65.5936 83.6771 68.8452 79.7232 73.2308 78.6882C73.3258 78.649 73.4206 78.6289 73.5154 78.6093C74.2177 78.4498 74.3006 80.9805 73.5406 81.1019Z" fill="#CCCCCC"/>
<path d="M76.3967 78.4504L76.4216 80.8725C79.5655 81.2445 82.1242 83.5476 82.8298 86.5846C82.8501 86.6602 82.8693 86.7169 82.8699 86.7741C82.9098 86.9451 82.9305 87.0971 82.9513 87.2682C82.9926 87.5723 83.0148 87.8766 83.018 88.181L83.0925 95.4139L85.5092 95.389L85.4347 88.1562C85.3816 83.0405 81.4073 78.8898 76.3967 78.4504Z" fill="#CCCCCC"/>
<path d="M73.5897 80.3868C67.8887 81.4474 67.2173 87.6731 67.2173 87.6731L67.2987 95.5766L68.1553 95.5677L68.0808 88.3349C68.0454 84.8956 70.3739 81.9966 73.539 81.1073C73.781 81.0263 73.9246 80.3146 73.9246 80.3146C73.9246 80.3146 73.7749 80.3494 73.5897 80.3868Z" fill="#808080"/>
<path d="M76.4165 80.3577L76.4218 80.8725C79.5657 81.2445 82.1244 83.5477 82.83 86.5846C82.675 84.8093 81.1619 80.9418 76.4165 80.3577Z" fill="#808080"/>
<path d="M73.541 81.102C73.4648 81.1218 73.4087 81.1415 73.3325 81.1614C73.3882 81.0086 73.694 80.6596 73.7247 79.9362C73.7553 79.1933 73.498 78.6943 73.2307 78.6882C73.3257 78.6491 73.4205 78.629 73.5153 78.6094C74.2181 78.4499 74.301 80.9805 73.541 81.102Z" fill="#666666"/>
<path d="M65.7476 96.0399C65.6864 96.0405 65.6361 95.9913 65.6355 95.9301L65.5598 88.5819C65.556 88.5095 65.5081 87.4749 65.8115 86.0784C66.0959 84.7687 66.7579 82.8891 68.2959 81.3734C68.3394 81.3303 68.41 81.3309 68.453 81.3744C68.4961 81.4179 68.4955 81.4885 68.452 81.5316C66.9548 83.0074 66.3088 84.8406 66.0299 86.1192C65.7268 87.509 65.7807 88.5623 65.7813 88.5729L65.7813 88.5778L65.857 95.9278C65.8581 95.989 65.8089 96.0392 65.7476 96.0399Z" fill="white"/>
<path d="M87.6013 93.3931L63.6061 93.6401L63.808 113.255L87.8033 113.008L87.6013 93.3931Z" fill="#F7AF0C"/>
<path d="M72.5832 101.352C72.5957 102.562 73.33 103.611 74.3618 104.061L74.4138 109.113C74.4199 109.709 74.8441 110.204 75.3974 110.314L75.4542 110.313C75.5117 110.332 75.5875 110.331 75.6448 110.33C76.311 110.323 76.8565 109.761 76.8496 109.088L76.7976 104.036C77.8201 103.546 78.5329 102.501 78.5204 101.291C78.5034 99.6386 77.1574 98.327 75.5214 98.3438C75.445 98.3446 75.3692 98.3454 75.293 98.3653C73.7532 98.497 72.567 99.7769 72.5832 101.352Z" fill="#CC840A"/>
<path d="M72.5829 101.352C72.5953 102.562 73.3297 103.611 74.3615 104.062L74.4135 109.113C74.4196 109.709 74.8437 110.204 75.3971 110.314L75.4539 110.313C76.0044 110.192 76.4182 109.688 76.4121 109.093L76.3601 104.041C77.3826 103.55 78.0954 102.506 78.0829 101.296C78.0667 99.7204 76.8356 98.4454 75.2931 98.3658C73.7529 98.4971 72.5667 99.777 72.5829 101.352Z" fill="#803D00"/>
<path d="M80.1887 113.086L87.8028 113.008L87.6008 93.3932L85.4886 93.4149C85.4886 93.4149 86.1986 107.882 80.1887 113.086Z" fill="#E6950B"/>
<path d="M68.9599 113.202C67.1014 109.329 67.3328 98.8645 67.2786 93.6023L64.8619 93.6272L65.0639 113.242L68.9599 113.202Z" fill="#F7E4AD"/>
<path d="M108.648 74.4754C108.648 74.4754 109.909 75.6485 109.534 77.9002C111.42 79.4446 111.652 82.2303 111.394 83.5251C114.649 86.4155 113.898 90.601 111.661 91.8523C109.528 93.0452 106.378 91.9697 105.061 89.2454C102.973 85.8361 100.903 79.4508 104.097 76.0519C103.394 73.6902 107.707 73.2609 108.648 74.4754Z" fill="#0E0E0E"/>
<path d="M104.37 80.0696L101.149 76.8641L101.094 71.2606L100.04 71.133C100.04 71.133 99.2312 76.238 99.245 77.3214C99.2576 78.2827 102.527 82.4287 102.527 82.4287L104.37 80.0696Z" fill="#DEE2E6"/>
<path d="M108.942 83.1275L107.233 87.975L102.567 88.0231C102.567 88.0231 102.231 85.0405 102.151 83.4527C102.132 83.0698 102.129 82.7649 102.149 82.6018C102.293 81.4511 104.171 79.8715 104.171 79.8715C104.171 79.8715 104.185 79.8713 104.213 79.8639C104.589 79.8174 107.146 79.5075 108.09 80.2848C109.099 81.1262 108.942 83.1275 108.942 83.1275Z" fill="#008C86"/>
<path d="M108.762 93.8833L104.609 93.926C104.721 94.7705 105.171 95.6842 105.368 96.4377C107.107 101.054 107.995 107.247 109.823 111.315C109.823 111.315 110.594 111.706 111.1 111.302C110.72 108.231 110.725 106.323 109.671 101.24C109.307 99.7618 109.411 96.2194 108.762 93.8833Z" fill="#DEE2E6"/>
<path d="M101.777 93.9551C101.292 99.0981 100.416 110.206 100.319 111.352L101.639 111.345C102.474 108.396 103.551 105.746 103.61 102.015C104.262 99.9553 105.348 96.4916 106.161 93.9096L101.777 93.9547L101.777 93.9551Z" fill="#DEE2E6"/>
<path d="M108.887 94.907L105.754 95.1976L104.993 95.2684L101.63 95.5823C101.499 97.0098 101.353 98.7047 101.212 100.448C102.229 100.857 103.649 101.449 103.772 101.502L105.368 96.4378C105.868 98.0053 106.479 100.055 106.941 101.655C107.784 101.249 108.688 100.901 109.572 100.703C109.389 98.8462 109.163 96.7112 108.887 94.907Z" fill="#DEE2E6"/>
<path d="M107.72 80.3228L110.785 77.9222L109.745 72.7164L110.867 72.3581C110.867 72.3581 113.353 77.2575 113.361 78.3409C113.369 79.3023 108.943 83.1528 108.943 83.1528C108.215 83.5061 107.108 81.9022 107.72 80.3228Z" fill="#DEE2E6"/>
<path d="M104.656 79.7252C104.656 79.7252 103.352 80.6366 103.85 81.3031C104.278 81.8771 105.313 81.2073 105.313 81.2073C105.313 81.2073 105.497 82.0998 106.196 81.9732C107.168 81.7972 107.357 80.3615 106.944 79.8979C106.532 79.4343 105.129 79.4789 104.656 79.7252Z" fill="#DEE2E6"/>
<path d="M106.894 80.2003C106.898 80.5904 106.255 81.1576 105.349 81.1217C104.774 81.0988 104.447 80.7763 104.537 80.3715L104.631 79.8529L104.893 78.3747L107.002 78.4099L106.894 80.2003Z" fill="#DEE2E6"/>
<path d="M106.861 78.6878C106.577 79.2989 106.007 79.7713 104.632 79.8529L104.894 78.3747L106.851 78.4114L106.861 78.6878Z" fill="#DEE2E6"/>
<path d="M107.813 77.5274C107.463 78.7232 106.079 79.4544 104.687 78.9866C103.347 77.8676 103.947 76.3873 104.233 75.972C103.865 74.0138 106.029 73.0563 107.428 73.8444C108.629 74.521 108.565 76.1081 107.813 77.5274Z" fill="#DEE2E6"/>
<path d="M111.539 99.8037C110.31 100.263 108.759 100.52 107.207 100.636C104.11 100.845 100.546 100.368 100.222 99.8115C100.796 94.0106 102.573 88.0234 102.573 88.0234L107.233 87.9754C108.062 88.6123 108.818 89.7324 109.313 90.9329C109.649 91.8798 110.997 96.0291 111.539 99.8037Z" fill="#008C86"/>
<path d="M97.9464 112.712C97.9462 112.696 98.7305 112.687 99.5694 112.682C100.535 112.676 101.737 112.673 101.737 112.673C101.757 112.3 101.767 111.915 101.638 111.345L100.126 111.353C100.126 111.353 99.7074 111.428 98.9751 111.66C98.9269 111.675 98.8751 111.686 98.8224 111.699C97.6503 111.984 97.9467 112.747 97.9464 112.712Z" fill="#DEE2E6"/>
<path d="M97.9463 112.713C97.9462 112.696 98.7304 112.687 99.5693 112.683C99.5947 112.606 99.6072 112.525 99.6063 112.441C99.6026 112.077 99.3384 111.77 98.9746 111.66C98.926 111.674 98.8746 111.686 98.8219 111.7C97.6503 111.984 97.9467 112.747 97.9463 112.713Z" fill="#DEE2E6"/>
<path d="M97.8691 112.715L101.789 112.674L101.786 112.436L97.8666 112.476L97.8691 112.715Z" fill="#DEE2E6"/>
<path d="M109.75 112.645C109.773 112.646 110.157 112.637 110.633 112.627C111.408 112.612 112.427 112.595 112.523 112.617C112.786 111.961 112.223 111.632 111.705 111.453C111.485 111.377 111.272 111.328 111.135 111.294L109.822 111.315C109.704 111.887 109.722 112.272 109.75 112.645Z" fill="#DEE2E6"/>
<path d="M112.598 112.378L109.696 112.408L109.698 112.647L112.6 112.617L112.598 112.378Z" fill="#DEE2E6"/>
<path d="M110.632 112.627C111.408 112.612 112.427 112.595 112.523 112.617C112.786 111.961 112.222 111.632 111.705 111.453C111.405 111.424 111.057 111.477 110.785 111.767C110.498 112.073 110.526 112.385 110.632 112.627Z" fill="#DEE2E6"/>
<path d="M104.953 88.5795C103.556 88.5939 102.544 88.128 102.53 88.1211C102.476 88.0959 102.454 88.0326 102.479 87.9796C102.504 87.9265 102.567 87.9036 102.62 87.9288C102.642 87.9393 104.83 88.9434 107.187 87.88C107.241 87.856 107.304 87.8797 107.328 87.9332C107.352 87.9866 107.329 88.0499 107.275 88.074C106.455 88.4438 105.655 88.5723 104.953 88.5795Z" fill="#DEE2E6"/>
<path d="M102.685 75.7608C104.154 77.4795 106.022 74.0038 107.313 75.0767C107.313 75.0767 107.452 77.6671 108.315 76.7868C108.583 76.4596 108.873 74.9248 108.143 74.4231C108.152 73.5854 106.75 72.7725 105.122 73.1821C103.996 73.511 103.675 74.3466 103.592 74.7177C102.945 74.5495 102.347 75.1753 102.685 75.7608Z" fill="#0E0E0E"/>
<path d="M117.988 70.8903L89.4333 65.9801L88.9347 68.8794L117.49 73.7896L117.988 70.8903Z" fill="#F7931A"/>
<path d="M117.997 70.835L89.4421 65.9248L89.409 66.1177L117.964 71.0279L117.997 70.835Z" fill="#DEE2E6"/>
<path d="M123.882 65.5603C119.684 64.8351 115.683 67.6631 114.958 71.8679C114.24 76.066 117.068 80.0665 121.266 80.7917C125.464 81.5097 129.465 78.6818 130.19 74.484C130.915 70.2858 128.08 66.2854 123.882 65.5603ZM127.466 73.7717C127.46 73.8485 127.447 73.9326 127.434 74.0095C126.979 76.689 124.421 78.4967 121.741 78.0351C119.6 77.6661 118.011 75.9642 117.704 73.921C117.622 73.4118 117.623 72.8743 117.715 72.3358C118.177 69.6562 120.728 67.8486 123.408 68.3102C126.004 68.7584 127.775 71.1567 127.473 73.737C127.473 73.7507 127.473 73.7574 127.466 73.7717Z" fill="#F7931A"/>
<path d="M93.9592 67.7988L91.2795 67.338L90.3126 72.9611L92.9923 73.4219L93.9592 67.7988Z" fill="#F7931A"/>
<path d="M99.0681 69.1297L96.3884 68.6689L95.6557 72.9303L98.3353 73.3911L99.0681 69.1297Z" fill="#F7931A"/>
<path d="M127.472 73.7364C127.773 71.1561 126.003 68.7578 123.407 68.3096C120.727 67.848 118.176 69.6556 117.714 72.3352C117.622 72.8737 117.62 73.4117 117.703 73.9205C117.615 73.572 117.57 73.2094 117.566 72.8326C117.537 70.0741 119.749 67.8093 122.515 67.7808C125.273 67.7524 127.538 69.9711 127.566 72.7296C127.57 73.0718 127.538 73.4144 127.472 73.7364Z" fill="#004236"/>
<path d="M122.775 65.4181C116.999 65.2427 115.152 70.4916 115.131 70.5504L115.409 70.5915C115.487 70.3603 117.207 65.4931 122.778 65.6932L122.775 65.4181Z" fill="#DEE2E6"/>
<path d="M101.021 71.3714C101.021 71.3714 101.432 71.2678 101.538 70.5596C101.645 69.8514 101.663 70.0154 101.663 70.0154C101.663 70.0154 101.272 69.8188 101.075 70.6371C100.464 70.6026 99.9779 70.8979 100.015 71.2917C100.039 71.5334 100.947 71.4818 101.021 71.3714Z" fill="#DEE2E6"/>
<path d="M100.072 71.081L100.013 71.0444C100.025 71.0252 100.302 70.5851 101.048 70.6009C101.161 70.1368 101.382 69.9166 101.671 69.981L101.656 70.0491C101.334 69.9774 101.181 70.3337 101.109 70.6447L101.103 70.6727L101.074 70.6717C100.352 70.6445 100.075 71.0766 100.072 71.081Z" fill="#FF7E59"/>
<path d="M109.807 73.0058C109.807 73.0058 109.196 72.8092 108.943 71.5454C109.331 71.2636 109.492 71.9965 109.492 71.9965C109.492 71.9965 110.152 71.9511 110.607 72.152C110.847 72.2582 110.906 72.3895 111.043 72.7263C111.396 73.4515 109.807 73.0058 109.807 73.0058Z" fill="#DEE2E6"/>
<path d="M111.038 72.7601C111.024 72.7602 111.011 72.7519 111.005 72.7382C111.005 72.7369 110.959 72.6242 110.869 72.4294C110.611 71.9362 109.507 72.0306 109.496 72.0316L109.468 72.0341L109.459 72.0066C109.459 72.0049 109.412 71.8487 109.301 71.6332C109.276 71.5846 109.242 71.5539 109.196 71.5397C109.09 71.5071 108.961 71.5759 108.96 71.5763C108.943 71.5854 108.921 71.5794 108.912 71.5622C108.903 71.5454 108.909 71.524 108.926 71.515C108.932 71.5114 109.081 71.4313 109.216 71.4729C109.28 71.4927 109.329 71.5357 109.363 71.6015C109.451 71.7728 109.499 71.9055 109.517 71.9603C109.699 71.9474 110.672 71.9036 110.931 72.399C111.023 72.5973 111.069 72.7118 111.07 72.7127C111.077 72.7304 111.069 72.7509 111.05 72.7582C111.046 72.7591 111.042 72.76 111.038 72.7601Z" fill="#FF7E59"/>
<path d="M108.208 77.7307C108.47 77.6854 108.646 77.4362 108.601 77.1741C108.555 76.912 108.306 76.7363 108.044 76.7816C107.782 76.8269 107.606 77.0761 107.652 77.3382C107.697 77.6003 107.946 77.776 108.208 77.7307Z" fill="#DEE2E6"/>
<path d="M100.223 99.8779C100.221 99.878 100.219 99.878 100.217 99.8776C100.18 99.8744 100.153 99.8423 100.156 99.8058C100.599 94.3779 102.393 88.3124 102.487 87.9953C102.463 87.735 102.096 83.7039 102.082 82.6027C102.07 81.6068 104.021 79.8507 104.103 79.7761C104.131 79.7514 104.173 79.7541 104.197 79.7814C104.222 79.8086 104.219 79.8508 104.192 79.8755C104.172 79.8935 102.204 81.6653 102.216 82.6009C102.229 83.7282 102.617 87.9536 102.621 87.9962L102.622 88.009L102.618 88.0215C102.599 88.0834 100.74 94.2837 100.288 99.8169C100.286 99.8511 100.257 99.8776 100.223 99.8779Z" fill="#DEE2E6"/>
</svg>
