<svg width="235" height="161" viewBox="0 0 235 161" fill="none" xmlns="http://www.w3.org/2000/svg">
<g filter="url(#filter0_d_6387_142994)">
<path d="M65.9712 68.3803V107.857L15.7843 93.1677L11.8061 77.2548L65.9712 68.3803Z" fill="#495057"/>
</g>
<g filter="url(#filter1_d_6387_142994)">
<path d="M10.123 38.9364C10.0286 35.8208 12.2909 33.1319 15.3768 32.692L171.764 10.3975C175.377 9.88249 178.635 12.6235 178.745 16.2712L180.254 66.0714C180.349 69.2037 178.063 71.9017 174.957 72.3219L18.5355 93.4847C14.9364 93.9716 11.7074 91.2352 11.5974 87.6049L10.123 38.9364Z" fill="#ADB5BD"/>
</g>
<g filter="url(#filter2_d_6387_142994)">
<path d="M199.769 132.835L225.169 91.8288L195.179 95.7776L199.769 132.835Z" fill="#CED4DA"/>
</g>
<g filter="url(#filter3_d_6387_142994)">
<path d="M72.7906 101.434C72.6399 98.2782 74.9164 95.5261 78.0448 95.0826L193.381 78.7307C196.951 78.2247 200.182 80.8977 200.354 84.4985L202.405 127.443C202.556 130.619 200.251 133.382 197.099 133.802L81.7157 149.173C78.1626 149.646 74.9651 146.978 74.7942 143.398L72.7906 101.434Z" fill="#DEE2E6"/>
</g>
<line x1="0.612035" y1="-0.612035" x2="48.0014" y2="-0.612035" transform="matrix(0.980604 -0.196001 0.103498 0.99463 165.868 30.5884)" stroke="black" stroke-width="1.22407" stroke-linecap="round"/>
<line x1="0.612035" y1="-0.612035" x2="48.0014" y2="-0.612035" transform="matrix(0.980604 -0.196001 0.103498 0.99463 165.937 34.2604)" stroke="black" stroke-width="1.22407" stroke-linecap="round"/>
<line x1="117.944" y1="151.711" x2="167.538" y2="142.748" stroke="#6C757D" stroke-width="1.22407" stroke-linecap="round"/>
<line x1="0.612035" y1="-0.612035" x2="30.7514" y2="-0.612035" transform="matrix(0.9562 -0.292714 0.10609 0.994357 56.2492 129.166)" stroke="#6C757D" stroke-width="1.22407" stroke-linecap="round"/>
<line x1="0.612035" y1="-0.612035" x2="30.7514" y2="-0.612035" transform="matrix(0.9562 -0.292714 0.10609 0.994357 56.2492 134.063)" stroke="#6C757D" stroke-width="1.22407" stroke-linecap="round"/>
<circle cx="27.7872" cy="29.099" r="5.81433" fill="#DEE2E6"/>
<circle cx="165.526" cy="11.1049" r="5.81433" transform="rotate(-4.32389 165.526 11.1049)" fill="#DEE2E6"/>
<circle cx="60.6475" cy="116.428" r="5.81433" transform="rotate(-4.32389 60.6475 116.428)" fill="#DEE2E6"/>
<circle cx="194.26" cy="62.759" r="5.81433" fill="#DEE2E6"/>
<circle cx="26.5634" cy="75.6104" r="7.65043" stroke="#DEE2E6" stroke-width="1.22407"/>
<circle cx="185.661" cy="12.8619" r="7.65043" transform="rotate(-4.32389 185.661 12.8619)" stroke="#DEE2E6" stroke-width="1.22407"/>
<circle cx="49.8071" cy="114.768" r="7.65043" transform="rotate(-4.32389 49.8071 114.768)" stroke="#DEE2E6" stroke-width="1.22407"/>
<path d="M138.376 156.115L141.58 145.455L149.209 153.56L138.376 156.115Z" fill="#6C757D" stroke="#6C757D" stroke-width="0.612035"/>
<path d="M41.9176 67.6701L39.702 50.3568L51.1654 48.8898L51.5516 51.9078L43.7487 52.9063L44.2767 57.0318L51.3187 56.1306L51.7049 59.1486L44.6629 60.0498L45.5781 67.2017L41.9176 67.6701ZM70.8239 55.1725C71.0655 57.0605 70.9132 58.7126 70.3669 60.1286C69.8263 61.5439 68.9864 62.6796 67.8472 63.5356C66.7129 64.3854 65.3821 64.9079 63.8548 65.1034C62.3162 65.3003 60.8907 65.1276 59.5783 64.5852C58.2659 64.0429 57.1699 63.1549 56.2903 61.9214C55.4107 60.6878 54.8504 59.1299 54.6095 57.2475C54.3679 55.3595 54.5174 53.7078 55.0581 52.2925C55.5987 50.8772 56.4361 49.7447 57.5704 48.895C58.704 48.0396 60.04 47.5135 61.5786 47.3166C63.1059 47.1212 64.5258 47.2946 65.8382 47.837C67.1555 48.3729 68.254 49.2577 69.1336 50.4913C70.0189 51.7241 70.5823 53.2845 70.8239 55.1725ZM67.1127 55.6475C66.9562 54.4245 66.641 53.4166 66.1672 52.6237C65.6991 51.8301 65.1075 51.2585 64.3926 50.9089C63.6777 50.5594 62.8778 50.4412 61.993 50.5544C61.1081 50.6677 60.3638 50.9835 59.7599 51.5018C59.1561 52.0201 58.7247 52.7226 58.4658 53.6092C58.2126 54.4951 58.1642 55.5496 58.3207 56.7726C58.4773 57.9955 58.7896 59.0038 59.2577 59.7974C59.7315 60.5903 60.3259 61.1615 61.0408 61.5111C61.7558 61.8607 62.5556 61.9788 63.4405 61.8656C64.3253 61.7524 65.0696 61.4366 65.6735 60.9182C66.2774 60.3999 66.7059 59.6978 66.9591 58.8119C67.218 57.9252 67.2692 56.8704 67.1127 55.6475ZM74.8218 63.4594L72.6062 46.146L76.2667 45.6776L78.0961 59.9729L85.5185 59.0231L85.9047 62.0411L74.8218 63.4594ZM88.5074 61.708L86.2918 44.3947L89.9523 43.9262L91.7817 58.2216L99.2041 57.2717L99.5903 60.2897L88.5074 61.708ZM116.321 49.3502C116.563 51.2382 116.41 52.8903 115.864 54.3063C115.323 55.7216 114.483 56.8573 113.344 57.7133C112.21 58.5631 110.879 59.0856 109.352 59.2811C107.813 59.478 106.388 59.3053 105.075 58.7629C103.763 58.2206 102.667 57.3326 101.787 56.0991C100.908 54.8655 100.348 53.3076 100.107 51.4252C99.865 49.5372 100.015 47.8855 100.555 46.4702C101.096 45.0549 101.933 43.9224 103.068 43.0727C104.201 42.2173 105.537 41.6912 107.076 41.4943C108.603 41.2989 110.023 41.4723 111.335 42.0147C112.653 42.5506 113.751 43.4354 114.631 44.669C115.516 45.9018 116.079 47.4622 116.321 49.3502ZM112.61 49.8252C112.453 48.6022 112.138 47.5943 111.664 46.8014C111.196 46.0078 110.605 45.4362 109.89 45.0866C109.175 44.7371 108.375 44.6189 107.49 44.7321C106.605 44.8454 105.861 45.1612 105.257 45.6795C104.653 46.1978 104.222 46.9003 103.963 47.7869C103.71 48.6728 103.661 49.7273 103.818 50.9503C103.974 52.1732 104.287 53.1815 104.755 53.9751C105.229 54.768 105.823 55.3392 106.538 55.6888C107.253 56.0384 108.053 56.1565 108.938 56.0433C109.822 55.9301 110.567 55.6143 111.171 55.0959C111.774 54.5776 112.203 53.8755 112.456 52.9896C112.715 52.1029 112.766 51.0481 112.61 49.8252ZM123.565 57.2216L116.396 40.5422L120.394 40.0305L124.8 51.6935L124.943 51.6751L126.566 39.2408L129.989 38.8026L134.685 50.4542L134.837 50.4347L136.161 38.0129L140.159 37.5012L137.421 55.4485L133.853 55.905L129.108 45.0073L128.973 45.0246L127.133 56.7651L123.565 57.2216ZM153.185 53.4312L149.262 53.9331L153.024 35.8549L157.741 35.2512L165.925 51.8008L162.002 52.3028L155.956 39.5008L155.821 39.5181L153.185 53.4312ZM152.069 46.6572L161.334 45.4715L161.7 48.3289L152.435 49.5146L152.069 46.6572Z" fill="white"/>
<path d="M98.1836 126.089L96.3501 113.127L101.211 112.44C102.207 112.299 103.068 112.366 103.796 112.642C104.528 112.917 105.113 113.355 105.55 113.956C105.992 114.552 106.271 115.262 106.387 116.084C106.505 116.916 106.434 117.679 106.175 118.374C105.916 119.069 105.472 119.65 104.841 120.118C104.209 120.582 103.393 120.885 102.393 121.026L99.1717 121.482L98.8986 119.552L101.804 119.141C102.386 119.058 102.848 118.89 103.191 118.635C103.534 118.379 103.769 118.062 103.896 117.683C104.027 117.303 104.06 116.883 103.995 116.423C103.93 115.963 103.782 115.571 103.551 115.246C103.324 114.921 103.009 114.688 102.606 114.547C102.207 114.401 101.714 114.37 101.128 114.453L98.9757 114.757L100.532 125.757L98.1836 126.089ZM109.653 124.467L107.82 111.505L112.681 110.817C113.676 110.676 114.536 110.731 115.26 110.982C115.989 111.231 116.57 111.644 117.004 112.22C117.442 112.79 117.72 113.489 117.837 114.316C117.954 115.147 117.879 115.894 117.611 116.556C117.347 117.213 116.897 117.757 116.26 118.187C115.623 118.612 114.807 118.896 113.811 119.037L110.349 119.526L110.073 117.577L113.219 117.132C113.801 117.05 114.267 116.902 114.615 116.689C114.963 116.472 115.204 116.195 115.337 115.858C115.473 115.516 115.509 115.115 115.444 114.655C115.379 114.195 115.233 113.815 115.005 113.516C114.777 113.213 114.466 113.003 114.071 112.886C113.675 112.766 113.184 112.747 112.597 112.83L110.445 113.135L112.001 124.134L109.653 124.467ZM115.519 117.646L119.558 123.065L116.938 123.436L112.955 118.009L115.519 117.646ZM131.91 114.708C132.108 116.104 132.016 117.337 131.633 118.407C131.255 119.472 130.653 120.332 129.829 120.986C129.009 121.64 128.032 122.048 126.897 122.208C125.762 122.369 124.707 122.249 123.734 121.849C122.764 121.443 121.948 120.782 121.284 119.865C120.625 118.942 120.196 117.785 119.999 116.392C119.802 114.996 119.892 113.765 120.271 112.7C120.653 111.63 121.254 110.768 122.074 110.114C122.898 109.46 123.878 109.052 125.013 108.892C126.148 108.731 127.2 108.851 128.169 109.252C129.142 109.653 129.959 110.314 130.619 111.236C131.282 112.154 131.713 113.311 131.91 114.708ZM129.55 115.041C129.411 114.058 129.139 113.251 128.736 112.619C128.336 111.983 127.841 111.53 127.252 111.261C126.663 110.987 126.016 110.9 125.311 110.999C124.606 111.099 124.009 111.362 123.518 111.789C123.027 112.211 122.676 112.784 122.464 113.507C122.255 114.225 122.221 115.075 122.36 116.059C122.499 117.042 122.768 117.851 123.168 118.488C123.572 119.119 124.068 119.572 124.658 119.846C125.247 120.115 125.894 120.2 126.598 120.101C127.303 120.001 127.901 119.74 128.392 119.317C128.883 118.891 129.232 118.319 129.44 117.6C129.652 116.878 129.689 116.025 129.55 115.041ZM138.327 107.189L140.656 106.86L141.946 115.973C142.06 116.81 141.984 117.554 141.719 118.207C141.454 118.856 141.03 119.387 140.447 119.801C139.868 120.21 139.163 120.473 138.332 120.591C137.572 120.698 136.869 120.66 136.224 120.476C135.582 120.287 135.045 119.949 134.615 119.464C134.185 118.978 133.913 118.336 133.801 117.539L136.136 117.208C136.19 117.558 136.308 117.849 136.492 118.081C136.68 118.313 136.916 118.478 137.201 118.575C137.486 118.672 137.801 118.697 138.147 118.648C138.523 118.595 138.83 118.471 139.07 118.278C139.309 118.081 139.474 117.817 139.564 117.485C139.659 117.153 139.677 116.759 139.617 116.303L138.327 107.189ZM145.037 119.461L143.204 106.499L151.634 105.307L151.913 107.275L145.83 108.136L146.328 111.654L151.974 110.856L152.252 112.824L146.607 113.623L147.107 117.161L153.24 116.293L153.518 118.261L145.037 119.461ZM165.743 107.772L163.376 108.107C163.254 107.728 163.081 107.402 162.857 107.128C162.632 106.85 162.37 106.624 162.07 106.452C161.77 106.279 161.44 106.164 161.079 106.108C160.722 106.046 160.345 106.044 159.948 106.1C159.244 106.199 158.644 106.465 158.15 106.896C157.655 107.324 157.302 107.899 157.09 108.621C156.878 109.34 156.84 110.187 156.978 111.161C157.118 112.153 157.391 112.967 157.795 113.602C158.202 114.233 158.701 114.684 159.29 114.953C159.882 115.218 160.529 115.301 161.229 115.202C161.618 115.147 161.973 115.045 162.297 114.896C162.623 114.742 162.907 114.545 163.149 114.304C163.394 114.063 163.589 113.781 163.733 113.46C163.881 113.137 163.964 112.781 163.982 112.391L166.351 112.069C166.35 112.698 166.239 113.303 166.02 113.885C165.806 114.466 165.491 114.997 165.077 115.477C164.663 115.953 164.155 116.352 163.555 116.674C162.954 116.991 162.268 117.205 161.496 117.314C160.357 117.475 159.302 117.355 158.333 116.954C157.364 116.553 156.552 115.891 155.896 114.968C155.241 114.045 154.814 112.888 154.617 111.495C154.42 110.099 154.51 108.868 154.889 107.803C155.267 106.734 155.866 105.872 156.686 105.218C157.506 104.564 158.481 104.157 159.612 103.997C160.334 103.895 161.019 103.902 161.668 104.017C162.317 104.131 162.911 104.351 163.452 104.674C163.992 104.994 164.459 105.414 164.851 105.936C165.247 106.452 165.544 107.064 165.743 107.772ZM166.984 105.143L166.705 103.175L177.047 101.712L177.325 103.68L173.319 104.247L174.874 115.241L172.545 115.57L170.99 104.576L166.984 105.143Z" fill="#212529"/>
<defs>
<filter id="filter0_d_6387_142994" x="2.21978" y="58.794" width="73.3377" height="58.6488" filterUnits="userSpaceOnUse" color-interpolation-filters="sRGB">
<feFlood flood-opacity="0" result="BackgroundImageFix"/>
<feColorMatrix in="SourceAlpha" type="matrix" values="0 0 0 0 0 0 0 0 0 0 0 0 0 0 0 0 0 0 127 0" result="hardAlpha"/>
<feOffset/>
<feGaussianBlur stdDeviation="4.79315"/>
<feColorMatrix type="matrix" values="0 0 0 0 0 0 0 0 0 0 0 0 0 0 0 0 0 0 0.1 0"/>
<feBlend mode="normal" in2="BackgroundImageFix" result="effect1_dropShadow_6387_142994"/>
<feBlend mode="normal" in="SourceGraphic" in2="effect1_dropShadow_6387_142994" result="shape"/>
</filter>
<filter id="filter1_d_6387_142994" x="0.53387" y="0.748897" width="189.31" height="102.378" filterUnits="userSpaceOnUse" color-interpolation-filters="sRGB">
<feFlood flood-opacity="0" result="BackgroundImageFix"/>
<feColorMatrix in="SourceAlpha" type="matrix" values="0 0 0 0 0 0 0 0 0 0 0 0 0 0 0 0 0 0 127 0" result="hardAlpha"/>
<feOffset/>
<feGaussianBlur stdDeviation="4.79315"/>
<feColorMatrix type="matrix" values="0 0 0 0 0 0 0 0 0 0 0 0 0 0 0 0 0 0 0.1 0"/>
<feBlend mode="normal" in2="BackgroundImageFix" result="effect1_dropShadow_6387_142994"/>
<feBlend mode="normal" in="SourceGraphic" in2="effect1_dropShadow_6387_142994" result="shape"/>
</filter>
<filter id="filter2_d_6387_142994" x="185.593" y="82.2425" width="49.1623" height="60.1789" filterUnits="userSpaceOnUse" color-interpolation-filters="sRGB">
<feFlood flood-opacity="0" result="BackgroundImageFix"/>
<feColorMatrix in="SourceAlpha" type="matrix" values="0 0 0 0 0 0 0 0 0 0 0 0 0 0 0 0 0 0 127 0" result="hardAlpha"/>
<feOffset/>
<feGaussianBlur stdDeviation="4.79315"/>
<feColorMatrix type="matrix" values="0 0 0 0 0 0 0 0 0 0 0 0 0 0 0 0 0 0 0.1 0"/>
<feBlend mode="normal" in2="BackgroundImageFix" result="effect1_dropShadow_6387_142994"/>
<feBlend mode="normal" in="SourceGraphic" in2="effect1_dropShadow_6387_142994" result="shape"/>
</filter>
<filter id="filter3_d_6387_142994" x="63.1972" y="69.0828" width="148.801" height="89.7308" filterUnits="userSpaceOnUse" color-interpolation-filters="sRGB">
<feFlood flood-opacity="0" result="BackgroundImageFix"/>
<feColorMatrix in="SourceAlpha" type="matrix" values="0 0 0 0 0 0 0 0 0 0 0 0 0 0 0 0 0 0 127 0" result="hardAlpha"/>
<feOffset/>
<feGaussianBlur stdDeviation="4.79315"/>
<feColorMatrix type="matrix" values="0 0 0 0 0 0 0 0 0 0 0 0 0 0 0 0 0 0 0.1 0"/>
<feBlend mode="normal" in2="BackgroundImageFix" result="effect1_dropShadow_6387_142994"/>
<feBlend mode="normal" in="SourceGraphic" in2="effect1_dropShadow_6387_142994" result="shape"/>
</filter>
</defs>
</svg>
