<svg width="28" height="30" viewBox="0 0 28 30" fill="none" xmlns="http://www.w3.org/2000/svg">
<path d="M27.1751 10.5471C27.1591 10.4514 27.1429 10.3558 27.1248 10.2607C27.0669 9.95437 27.0669 9.95437 27.0669 9.95437C26.9855 9.62268 26.6187 9.35132 26.2519 9.35124L17.3584 9.35045C16.9914 9.35037 16.5987 9.63601 16.4857 9.98504L14.5961 15.8186C14.5403 15.9908 14.467 16.2031 14.548 16.3178C14.6312 16.4354 14.8719 16.4532 15.0578 16.4532H18.6786C18.6786 16.4532 18.8477 16.4518 18.8703 16.5693C18.8943 16.6939 18.7647 16.8282 18.7647 16.8282L12.3821 23.5363C12.1589 23.7711 11.769 24.1804 11.516 24.446L9.87876 26.1638C9.87876 26.1638 9.84534 26.2014 9.80628 26.2374C9.78376 26.2583 9.76211 26.2765 9.74148 26.2925C9.51436 26.469 9.40696 26.3703 9.50118 26.0475L10.3343 23.1927C10.4371 22.8406 10.6051 22.2641 10.708 21.9119L11.1851 20.2769C11.2651 20.0026 11.356 19.6916 11.4131 19.4956C11.4293 19.4399 11.4672 19.2681 11.41 19.1813C11.3558 19.0988 11.2645 19.0832 11.162 19.0832C11.0509 19.0832 10.92 19.0832 10.7824 19.0832H7.3339C6.9669 19.0832 6.84374 18.8975 7.0601 18.6704C7.27647 18.4434 7.66057 18.0403 7.91373 17.7747L10.5949 14.9616C10.848 14.6959 11.2378 14.2866 11.4612 14.0518C11.6846 13.817 12.0744 13.4075 12.3272 13.1416L12.78 12.6657C13.033 12.3998 13.4468 11.9648 13.6996 11.699L14.6288 10.7226C14.8817 10.4568 15.2789 10.0393 15.5114 9.7948C15.744 9.55042 15.9953 9.28636 16.0697 9.20799C16.1442 9.12969 16.412 8.84813 16.665 8.58226L21.8342 3.14938C22.0872 2.88351 22.0377 2.50977 21.7245 2.31874C21.7245 2.31874 20.9934 1.87306 20.2996 1.58335C18.4963 0.830217 16.5387 0.562229 14.5613 0.740705C14.0037 0.79107 13.4459 0.87666 12.8911 0.996769C11.394 1.32108 9.92764 1.89205 8.54753 2.68346C7.68583 3.17739 6.86131 3.75596 6.08645 4.41056C4.26137 5.95212 2.72977 7.90052 1.64158 10.1567C1.10097 11.2774 0.702287 12.4096 0.432651 13.5302C-0.132587 15.8792 -0.127959 18.1857 0.353024 20.2609C0.672789 21.6419 1.20492 22.9296 1.92667 24.0731C1.97068 24.1429 2.01571 24.2123 2.06121 24.2811C2.44962 24.868 2.89075 25.4166 3.38123 25.9203C4.12941 26.6886 4.99669 27.3559 5.9785 27.8951C6.46803 28.1642 6.97051 28.3924 7.48209 28.5827C7.77275 28.6906 8.06663 28.7867 8.36325 28.8702C8.87177 29.0136 9.38892 29.1211 9.91124 29.1948C14.4611 29.8357 19.7524 27.834 23.4083 23.4444C24.1079 22.6043 24.7174 21.7157 25.2354 20.7931C25.9155 19.582 26.4374 18.3121 26.7944 17.0174C27.0921 15.9377 27.2746 14.8425 27.3388 13.7528C27.4027 12.6692 27.3493 11.5933 27.1751 10.5471Z" fill="#343A40"/>
</svg>
