<svg width="82" height="32" viewBox="0 0 82 32" fill="none" xmlns="http://www.w3.org/2000/svg">
<path d="M24.6836 11.9557C24.6691 11.8687 24.6544 11.7819 24.6379 11.6955C24.5853 11.4173 24.5853 11.4173 24.5853 11.4173C24.5114 11.116 24.1782 10.8695 23.845 10.8694L15.767 10.8687C15.4336 10.8686 15.0769 11.1281 14.9742 11.4451L13.2579 16.7438C13.2072 16.9003 13.1406 17.093 13.2142 17.1972C13.2898 17.304 13.5084 17.3203 13.6772 17.3203H16.9661C16.9661 17.3203 17.1197 17.319 17.1402 17.4257C17.1621 17.5389 17.0443 17.6609 17.0443 17.6609L11.2469 23.754C11.0441 23.9672 10.6899 24.339 10.4601 24.5802L8.97305 26.1406C8.97305 26.1406 8.9427 26.1747 8.90721 26.2074C8.88676 26.2264 8.86709 26.2429 8.84835 26.2575C8.64206 26.4178 8.54451 26.3281 8.63009 26.035L9.38678 23.4419C9.4802 23.122 9.63283 22.5984 9.72625 22.2785L10.1596 20.7934C10.2323 20.5442 10.3148 20.2618 10.3667 20.0837C10.3815 20.0331 10.4158 19.8771 10.3639 19.7982C10.3147 19.7233 10.2318 19.7092 10.1386 19.7092C10.0377 19.7092 9.91886 19.7092 9.79388 19.7092H6.6615C6.32816 19.7092 6.21628 19.5404 6.41281 19.3342C6.60934 19.128 6.95822 18.7618 7.18817 18.5206L9.6235 15.9654C9.85345 15.7241 10.2075 15.3523 10.4104 15.139C10.6133 14.9257 10.9674 14.5538 11.197 14.3123L11.6083 13.88C11.8381 13.6385 12.214 13.2434 12.4436 13.002L13.2876 12.1151C13.5173 11.8736 13.8781 11.4944 14.0893 11.2723C14.3005 11.0503 14.5288 10.8105 14.5964 10.7393C14.664 10.6682 14.9073 10.4124 15.1371 10.1709L19.8324 5.23617C20.0622 4.99468 20.0172 4.6552 19.7328 4.48169C19.7328 4.48169 19.0686 4.07687 18.4384 3.81371C16.8005 3.12963 15.0224 2.88621 13.2262 3.04833C12.7198 3.09407 12.2132 3.17182 11.7092 3.28091C10.3493 3.5755 9.01745 4.09411 7.76387 4.81297C6.98117 5.26161 6.23224 5.78714 5.52843 6.38172C3.87067 7.78194 2.4795 9.55171 1.49107 11.601C1.00003 12.619 0.637899 13.6474 0.392985 14.6653C-0.120431 16.7989 -0.116227 18.8939 0.320657 20.7789C0.611106 22.0332 1.09445 23.2029 1.75003 24.2415C1.79 24.305 1.83091 24.368 1.87224 24.4304C2.22503 24.9636 2.62572 25.4618 3.07123 25.9194C3.75082 26.6173 4.53858 27.2233 5.43038 27.7132C5.87503 27.9575 6.33144 28.1648 6.79611 28.3377C7.06012 28.4357 7.32706 28.523 7.59648 28.5988C8.05838 28.7291 8.52812 28.8267 9.00255 28.8937C13.1352 29.4758 17.9414 27.6577 21.2622 23.6705C21.8977 22.9074 22.4512 22.1003 22.9217 21.2623C23.5395 20.1622 24.0135 19.0087 24.3378 17.8327C24.6083 16.8521 24.774 15.8572 24.8323 14.8674C24.8904 13.8831 24.8418 12.9059 24.6836 11.9557Z" fill="#343A40"/>
<path d="M24.7511 24.5667L27.3154 11.382C27.3437 11.2537 27.3722 11.1612 27.4008 11.1042C27.4292 11.0474 27.4934 10.994 27.5931 10.944C27.6926 10.8942 27.8351 10.8691 28.0204 10.8691H35.6279C35.9983 10.8691 36.1547 11.04 36.0981 11.382L35.6279 13.8393C35.6279 14.1529 35.4213 14.3096 35.0083 14.3096H30.8412L30.5207 16.0191H34.3459C34.7017 16.0191 34.8442 16.1616 34.7731 16.4465L34.303 18.9039C34.303 19.2601 34.0965 19.4382 33.6834 19.4382H29.8582L29.431 21.6391H34.1321C34.4453 21.6391 34.5809 21.796 34.5382 22.1093L34.0468 24.5667C34.0323 24.6809 34.0146 24.7664 33.9932 24.8231C33.9719 24.8803 33.9147 24.9374 33.8223 24.9941C33.7295 25.0512 33.5906 25.0795 33.4056 25.0795H25.264C25.0217 25.0795 24.8687 25.0404 24.8046 24.962C24.7404 24.8839 24.7223 24.752 24.7511 24.5667Z" fill="#343A40"/>
<path d="M42.1883 16.5532H42.3593C43.057 15.1998 43.5059 14.3665 43.7054 14.053L45.0946 11.6168C45.2794 11.3037 45.4504 11.0971 45.6074 10.9972C45.764 10.8977 46.0134 10.8477 46.3552 10.8477H49.24C49.4536 10.8477 49.5996 10.9048 49.6781 11.0185C49.7562 11.1328 49.7454 11.2536 49.6461 11.3819L43.5772 20.3782L42.7865 24.5666C42.7437 24.9085 42.5156 25.0794 42.1027 25.0794H39.1964C38.783 25.0794 38.6121 24.9085 38.6835 24.5666L39.4956 20.3782H39.517L37.1877 11.4887C37.1451 11.3037 37.1771 11.1504 37.284 11.0293C37.3909 10.9084 37.5651 10.8477 37.8075 10.8477H40.4145C40.7422 10.8477 40.9629 10.887 41.077 10.9652C41.1909 11.0436 41.2834 11.2109 41.3548 11.4673L41.8463 14.053C42.0313 15.1502 42.1455 15.9835 42.1883 16.5532Z" fill="#343A40"/>
<path d="M55.1378 10.7188C56.6049 10.7188 57.7587 10.9325 58.5995 11.3598C59.2406 11.6733 59.4399 12.0437 59.1978 12.471L58.6637 14.031C58.5353 14.3444 58.3892 14.5369 58.2256 14.608C58.0616 14.6795 57.8158 14.6721 57.4883 14.5866C56.5621 14.4016 55.7003 14.3089 54.9026 14.3089C54.4892 14.3089 54.1901 14.3696 54.005 14.4905C53.8197 14.6117 53.7274 14.8505 53.7274 15.2063C53.7274 15.4772 53.8911 15.7053 54.2188 15.8902L54.7103 16.104C54.767 16.1183 54.8953 16.1573 55.0948 16.2214C55.2941 16.2854 55.4793 16.3463 55.6504 16.403C55.8213 16.4601 55.9566 16.5098 56.0564 16.5527C56.8684 16.8662 57.4846 17.2791 57.9049 17.7921C58.325 18.3049 58.5352 19.0101 58.5352 19.9076C58.5352 21.9023 57.8443 23.3267 56.4625 24.1814C55.2515 24.908 53.7769 25.2713 52.0392 25.2713C50.5004 25.2713 49.2611 25.0437 48.3208 24.5875C47.6938 24.2883 47.5018 23.918 47.7437 23.4763L48.2993 21.9377C48.4277 21.5958 48.5699 21.3927 48.7268 21.3285C48.8835 21.2646 49.1682 21.2825 49.5816 21.3821C50.8921 21.5818 51.9535 21.6813 52.7655 21.6813C53.6915 21.6813 54.1546 21.3253 54.1546 20.6127C54.1546 20.3708 54.0798 20.1853 53.9302 20.0572C53.7805 19.929 53.5061 19.8007 53.1075 19.6725C52.1102 19.3593 51.2624 18.9603 50.5646 18.4758C49.7526 17.8635 49.3465 16.966 49.3465 15.7834C49.3465 14.8574 49.503 14.0562 49.8167 13.3793C50.1298 12.7029 50.5608 12.1793 51.1095 11.8087C51.6577 11.4385 52.2667 11.1643 52.9366 10.986C53.606 10.8079 54.3397 10.7188 55.1378 10.7188Z" fill="#343A40"/>
<path d="M59.0765 24.5667L61.6407 11.382C61.669 11.2537 61.6975 11.1612 61.7261 11.1042C61.7545 11.0474 61.8187 10.994 61.9186 10.944C62.018 10.8942 62.1606 10.8691 62.3458 10.8691H69.9532C70.3236 10.8691 70.4802 11.04 70.4235 11.382L69.9532 13.8393C69.9532 14.1529 69.7466 14.3096 69.3336 14.3096H65.1666L64.8461 16.0191H68.6712C69.0271 16.0191 69.1698 16.1616 69.0986 16.4465L68.6285 18.9039C68.6285 19.2601 68.4218 19.4382 68.0087 19.4382H64.1836L63.7563 21.6391H68.4576C68.7708 21.6391 68.9063 21.796 68.8636 22.1093L68.3722 24.5667C68.3577 24.6809 68.34 24.7664 68.3186 24.8231C68.2973 24.8803 68.2402 24.9374 68.1477 24.9941C68.055 25.0512 67.916 25.0795 67.731 25.0795H59.5892C59.3469 25.0795 59.194 25.0404 59.1298 24.962C59.0658 24.8839 59.0477 24.752 59.0765 24.5667Z" fill="#343A40"/>
<path d="M73.1796 10.8691H78.0945C79.1914 10.8691 80.0745 11.179 80.7443 11.7987C81.4138 12.4184 81.7488 13.3052 81.7488 14.4591C81.7488 16.5393 80.8796 18.1062 79.1417 19.1603L80.2315 24.4599C80.2742 24.6452 80.2348 24.7948 80.114 24.9087C79.9928 25.023 79.8255 25.0796 79.6119 25.0796H76.9407C76.328 25.0796 76.0004 24.8946 75.9577 24.524L75.4021 19.9296H74.8892L73.9917 24.5667C73.949 24.9086 73.7209 25.0795 73.308 25.0795H70.423C70.1806 25.0795 70.024 25.0404 69.9529 24.962C69.8815 24.8839 69.86 24.7521 69.8889 24.5667L72.4532 11.382C72.4959 11.1969 72.5671 11.0651 72.6668 10.9866C72.7662 10.9085 72.9372 10.8691 73.1796 10.8691ZM76.8336 14.3096H75.979L75.5516 16.596H76.3636C76.6628 16.596 76.9226 16.4715 77.1436 16.2221C77.3644 15.9731 77.4747 15.5777 77.4747 15.036C77.4747 14.552 77.2611 14.3096 76.8336 14.3096Z" fill="#343A40"/>
</svg>
