<svg width="9" height="19" viewBox="0 0 9 19" fill="none" xmlns="http://www.w3.org/2000/svg">
<path d="M0.430621 11.8587L2.92783 2.77498C2.94994 2.69455 3.00683 2.62821 3.08294 2.59409L7.69188 0.528014C7.92654 0.422819 8.16669 0.663736 8.06075 0.898064L5.24779 7.11978C5.15186 7.33195 5.34234 7.56148 5.56856 7.50632L8.60384 6.76621C8.84589 6.70719 9.0383 6.97052 8.90852 7.18319L2.28987 18.0289C2.06587 18.3959 1.50116 18.1544 1.61192 17.7389L3.15992 11.9319C3.21622 11.7207 3.01915 11.5296 2.80977 11.5923L0.780207 12.2004C0.5699 12.2634 0.372426 12.0704 0.430621 11.8587Z" fill="#FFBA18" stroke="#4F3422" style="fill:#FFBA18;fill:color(display-p3 1.0000 0.7294 0.0941);fill-opacity:1;stroke:#4F3422;stroke:color(display-p3 0.3098 0.2039 0.1333);stroke-opacity:1;" stroke-width="0.0377173"/>
</svg>
