<svg xmlns="http://www.w3.org/2000/svg" width="1024" height="1024" viewBox="0 0 1024 1024"><rect width="1024" height="1024" rx="227" fill="#141a19"/><path d="M576.148,205.644c-.338-2-.682-3.991-1.066-5.974l-1.227-6.39c-1.725-6.918-9.5-12.578-17.28-12.58l-188.552-.016c-7.781,0-16.107,5.956-18.5,13.236L309.457,315.591c-1.183,3.593-2.738,8.019-1.02,10.411,1.765,2.453,6.868,2.826,10.808,2.826h76.766s3.586-.029,4.063,2.42c.511,2.6-2.239,5.4-2.239,5.4L262.518,476.562c-4.734,4.9-13,13.434-18.364,18.972l-34.711,35.829s-.709.784-1.537,1.535c-.477.435-.936.815-1.374,1.15-4.815,3.68-7.092,1.622-5.095-5.11L219.1,469.4c2.181-7.345,5.743-19.368,7.924-26.714l10.116-34.1c1.7-5.72,3.623-12.207,4.833-16.3.344-1.162,1.146-4.744-.065-6.555-1.149-1.72-3.085-2.045-5.259-2.045H155.488c-7.781,0-10.392-3.875-5.8-8.61l18.1-18.683,56.844-58.673c5.367-5.54,13.63-14.078,18.367-18.976s13-13.439,18.361-18.984l9.6-9.926c5.364-5.545,14.138-14.618,19.5-20.162l19.7-20.365c5.361-5.545,13.783-14.253,18.712-19.352s10.259-10.6,11.837-12.239,7.257-7.506,12.621-13.051L462.914,51.348c5.364-5.545,4.315-13.34-2.325-17.325a264.3,264.3,0,0,0-30.212-15.338C392.146,2.977,350.642-2.613,308.718,1.11A295.658,295.658,0,0,0,273.309,6.45a326.226,326.226,0,0,0-92.09,35.18,352.994,352.994,0,0,0-52.178,36.022A364.474,364.474,0,0,0,34.8,197.5,347.246,347.246,0,0,0,9.173,267.863c-11.984,48.993-11.886,97.1-1.688,140.383a255.34,255.34,0,0,0,33.363,79.511q1.4,2.184,2.852,4.338a233.424,233.424,0,0,0,83.052,75.379,241.545,241.545,0,0,0,31.878,14.34q9.244,3.377,18.682,6a252.835,252.835,0,0,0,32.82,6.771c96.463,13.367,208.645-28.383,286.156-119.938a367.646,367.646,0,0,0,38.736-55.3A349.051,349.051,0,0,0,568.077,340.6a324.248,324.248,0,0,0,11.541-68.09A294.868,294.868,0,0,0,576.148,205.644Z" transform="translate(221.914 213.488)" fill="#20ecc7"/></svg>