<svg width="801" height="205" viewBox="0 0 801 205" fill="none" xmlns="http://www.w3.org/2000/svg">
<path d="M0.340651 194.644L36.3266 9.61692C36.7246 7.81692 37.1236 6.51893 37.5257 5.71893C37.9236 4.92093 38.8247 4.17192 40.2247 3.46992C41.6207 2.77092 43.6207 2.41992 46.2207 2.41992H152.981C158.178 2.41992 160.374 4.81792 159.579 9.61692L152.981 44.1019C152.981 48.5019 150.081 50.7009 144.286 50.7009H85.8067L81.3086 74.6919H134.989C139.983 74.6919 141.983 76.6919 140.985 80.6889L134.387 115.175C134.387 120.174 131.489 122.673 125.692 122.673H72.0116L66.0156 153.56H131.989C136.385 153.56 138.288 155.761 137.688 160.158L130.792 194.644C130.589 196.247 130.341 197.446 130.04 198.243C129.741 199.045 128.938 199.846 127.642 200.642C126.339 201.443 124.39 201.841 121.794 201.841H7.53865C4.13865 201.841 1.99166 201.292 1.09166 200.192C0.190658 199.095 -0.0633488 197.245 0.340651 194.644Z" fill="#1A1A1A"/>
<path d="M245.043 82.1871H247.443C257.234 63.1951 263.533 51.5001 266.334 47.1011L285.828 12.9131C288.422 8.51914 290.822 5.61914 293.025 4.21714C295.222 2.82114 298.722 2.11914 303.519 2.11914H344.003C347.001 2.11914 349.05 2.92114 350.151 4.51614C351.247 6.12014 351.096 7.81613 349.702 9.61613L264.534 135.866L253.438 194.643C252.838 199.441 249.637 201.84 243.842 201.84H203.056C197.255 201.84 194.857 199.441 195.859 194.643L207.255 135.866H207.556L174.867 11.1151C174.269 8.51914 174.719 6.36814 176.219 4.66814C177.719 2.97214 180.164 2.11914 183.565 2.11914H220.151C224.749 2.11914 227.847 2.67114 229.448 3.76814C231.046 4.86913 232.344 7.21614 233.346 10.8151L240.244 47.1011C242.84 62.4981 244.443 74.1931 245.043 82.1871Z" fill="#1A1A1A"/>
<path d="M426.77 0.319336C447.358 0.319336 463.551 3.31934 475.35 9.31534C484.346 13.7153 487.143 18.9123 483.746 24.9093L476.25 46.8023C474.449 51.2003 472.398 53.9013 470.102 54.8983C467.801 55.9023 464.352 55.7983 459.756 54.5983C446.758 52.0023 434.664 50.7013 423.469 50.7013C417.668 50.7013 413.471 51.5533 410.873 53.2493C408.273 54.9513 406.977 58.3023 406.977 63.2953C406.977 67.0963 409.274 70.2973 413.873 72.8923L420.771 75.8923C421.566 76.0933 423.367 76.6403 426.167 77.5403C428.964 78.4393 431.563 79.2933 433.964 80.0893C436.362 80.8903 438.261 81.5883 439.661 82.1893C451.057 86.5893 459.704 92.3843 465.602 99.5833C471.497 106.779 474.448 116.675 474.448 129.271C474.448 157.263 464.751 177.252 445.36 189.247C428.366 199.443 407.672 204.541 383.286 204.541C361.692 204.541 344.3 201.347 331.104 194.945C322.305 190.747 319.61 185.55 323.006 179.352L330.803 157.759C332.604 152.961 334.6 150.112 336.801 149.211C339 148.314 342.996 148.565 348.797 149.962C367.188 152.765 382.084 154.161 393.479 154.161C406.473 154.161 412.973 149.165 412.973 139.166C412.973 135.77 411.922 133.168 409.823 131.37C407.723 129.57 403.872 127.77 398.278 125.971C384.282 121.576 372.385 115.977 362.592 109.177C351.197 100.585 345.498 87.9893 345.498 71.3933C345.498 58.3993 347.695 47.1553 352.096 37.6563C356.491 28.1643 362.539 20.8153 370.239 15.6153C377.932 10.4193 386.479 6.57234 395.88 4.07034C405.273 1.57034 415.57 0.319336 426.77 0.319336Z" fill="#1A1A1A"/>
<path d="M482.044 194.644L518.028 9.61692C518.426 7.81692 518.825 6.51893 519.227 5.71893C519.625 4.92093 520.526 4.17192 521.928 3.46992C523.323 2.77092 525.324 2.41992 527.924 2.41992H634.682C639.879 2.41992 642.077 4.81792 641.282 9.61692L634.682 44.1019C634.682 48.5019 631.782 50.7009 625.987 50.7009H567.509L563.011 74.6919H616.691C621.685 74.6919 623.687 76.6919 622.689 80.6889L616.091 115.175C616.091 120.174 613.191 122.673 607.394 122.673H553.714L547.718 153.56H613.693C618.088 153.56 619.99 155.761 619.39 160.158L612.494 194.644C612.291 196.247 612.043 197.446 611.742 198.243C611.443 199.045 610.642 199.846 609.344 200.642C608.043 201.443 606.092 201.841 603.496 201.841H489.239C485.839 201.841 483.692 201.292 482.792 200.192C481.894 199.095 481.64 197.245 482.044 194.644Z" fill="#1A1A1A"/>
<path d="M679.96 2.41895H748.933C764.326 2.41895 776.72 6.76694 786.119 15.4639C795.514 24.1599 800.215 36.6049 800.215 52.799C800.215 81.991 788.018 103.98 763.629 118.773L778.922 193.145C779.522 195.745 778.969 197.844 777.274 199.442C775.573 201.046 773.225 201.841 770.227 201.841H732.741C724.143 201.841 719.546 199.244 718.946 194.044L711.149 129.569H703.952L691.356 194.643C690.758 199.441 687.557 201.84 681.762 201.84H641.276C637.874 201.84 635.676 201.291 634.678 200.191C633.676 199.094 633.375 197.245 633.78 194.643L669.766 9.61594C670.366 7.01894 671.364 5.16895 672.764 4.06795C674.159 2.97195 676.558 2.41895 679.96 2.41895ZM731.239 50.7H719.245L713.247 82.7869H724.642C728.841 82.7869 732.488 81.0389 735.589 77.5389C738.687 74.0449 740.235 68.4959 740.235 60.8949C740.235 54.1019 737.237 50.7 731.239 50.7Z" fill="#1A1A1A"/>
</svg>
