<svg width="349" height="365" viewBox="0 0 349 365" fill="none" xmlns="http://www.w3.org/2000/svg">
<path d="M346.396 125.679C346.193 124.459 345.986 123.24 345.755 122.028C345.017 118.123 345.017 118.123 345.017 118.123C343.98 113.895 339.304 110.436 334.628 110.435L221.265 110.425C216.587 110.424 211.581 114.065 210.14 118.514L186.054 192.873C185.343 195.069 184.408 197.774 185.441 199.236C186.502 200.735 189.57 200.963 191.939 200.963H238.093C238.093 200.963 240.249 200.945 240.536 202.442C240.843 204.031 239.19 205.743 239.19 205.743L157.833 291.25C154.987 294.242 150.017 299.46 146.792 302.845L125.923 324.742C125.923 324.742 125.497 325.221 124.999 325.68C124.712 325.946 124.436 326.178 124.173 326.383C121.278 328.632 119.909 327.374 121.11 323.26L131.729 286.87C133.04 282.381 135.182 275.033 136.493 270.544L142.575 249.702C143.595 246.206 144.753 242.242 145.481 239.743C145.688 239.033 146.17 236.844 145.442 235.737C144.751 234.686 143.587 234.487 142.28 234.487C140.864 234.487 139.196 234.487 137.442 234.487H93.4839C88.8059 234.487 87.2359 232.119 89.9939 229.225C92.7519 226.331 97.6479 221.193 100.875 217.807L135.051 181.949C138.278 178.563 143.246 173.345 146.094 170.352C148.942 167.359 153.91 162.139 157.133 158.75L162.904 152.684C166.129 149.295 171.404 143.75 174.627 140.362L186.471 127.916C189.694 124.527 194.758 119.205 197.721 116.089C200.686 112.974 203.889 109.608 204.838 108.609C205.787 107.611 209.201 104.022 212.426 100.633L278.317 31.3812C281.542 27.9922 280.911 23.2282 276.919 20.7932C276.919 20.7932 267.599 15.1122 258.755 11.4192C235.769 1.81919 210.816 -1.59681 185.61 0.678194C178.503 1.32019 171.393 2.41119 164.321 3.94219C145.237 8.07619 126.546 15.3542 108.954 25.4422C97.9699 31.7382 87.4599 39.1132 77.5829 47.4572C54.3189 67.1072 34.7959 91.9432 20.9249 120.702C14.0339 134.988 8.95193 149.42 5.51493 163.704C-1.69007 193.646 -1.63107 223.046 4.49993 249.499C8.57593 267.102 15.3589 283.516 24.5589 298.092C25.1199 298.982 25.6939 299.867 26.2739 300.743C31.2249 308.225 36.8479 315.217 43.0999 321.638C52.6369 331.432 63.6919 339.937 76.2069 346.811C82.4469 350.24 88.8519 353.149 95.3729 355.575C99.0779 356.951 102.824 358.176 106.605 359.24C113.087 361.068 119.679 362.438 126.337 363.378C184.333 371.547 251.78 346.032 298.382 290.078C307.3 279.37 315.068 268.043 321.671 256.283C330.341 240.845 336.993 224.657 341.544 208.154C345.339 194.392 347.665 180.431 348.483 166.541C349.298 152.728 348.617 139.014 346.396 125.679Z" fill="#20ECC7"/>
</svg>
