<svg width="62" height="65" viewBox="0 0 62 65" fill="none" xmlns="http://www.w3.org/2000/svg">
<path d="M60.2347 22.2735L60.2345 22.2727L60.1211 21.6734L60.1077 21.6025C60.0473 21.3709 59.8793 21.1315 59.6264 20.9446C59.3707 20.7556 59.0623 20.6464 58.7715 20.6463C58.7715 20.6463 58.7715 20.6463 58.7714 20.6463L38.8613 20.6445H38.8612C38.5753 20.6445 38.2507 20.7583 37.965 20.9658C37.6792 21.1733 37.471 21.4464 37.383 21.7176L36.9074 21.5634L37.383 21.7176L33.1527 34.7605L33.1527 34.7606L33.1426 34.7918C33.08 34.9845 33.0264 35.1498 33.0013 35.2969C32.9895 35.3659 32.9882 35.4086 32.989 35.4322C33.0135 35.444 33.0632 35.4641 33.1539 35.4826C33.314 35.5152 33.5127 35.5253 33.7107 35.5253H41.8157H41.8169H41.8194L41.8285 35.5254C41.8353 35.5255 41.8438 35.5257 41.8536 35.5261C41.8621 35.5265 41.8717 35.527 41.8824 35.5277C41.8963 35.5286 41.9119 35.5299 41.929 35.5317C41.9873 35.5378 42.0715 35.5507 42.1637 35.58C42.3297 35.6327 42.6599 35.7888 42.737 36.1905C42.7997 36.516 42.6602 36.7967 42.5769 36.9357C42.5288 37.016 42.4794 37.0819 42.4423 37.1275C42.4235 37.1507 42.4071 37.1697 42.3945 37.1837L42.3785 37.2012L42.3729 37.2072L42.3715 37.2087C41.1065 38.5365 39.8415 39.8644 38.5765 41.1924C33.2137 46.822 27.8507 52.4518 22.4828 58.0769L22.4715 58.0892C22.4613 58.1004 22.447 58.1158 22.4296 58.134C22.3956 58.1697 22.3471 58.2189 22.293 58.2687M60.2347 22.2735L42.0095 36.8638C40.7438 38.1923 39.4781 39.521 38.2125 40.8496C32.8487 46.4803 27.4849 52.1109 22.1162 57.7368C22.1162 57.7368 22.0413 57.8208 21.9539 57.9013C21.9035 57.948 21.855 57.9887 21.8088 58.0246C21.3003 58.4191 21.0599 58.1985 21.2708 57.4768M60.2347 22.2735C60.7161 24.7962 60.8576 27.3891 60.7058 29.9581L60.7058 29.9581C60.5642 32.3586 60.1617 34.7727 59.5042 37.1536C58.7159 40.0087 57.5632 42.8106 56.0601 45.4837L56.06 45.4837C54.9152 47.52 53.5682 49.4816 52.0216 51.3363C43.9361 61.0318 32.2563 65.425 22.2585 64.0186C20.4415 63.7624 18.6561 63.3185 16.9245 62.6763C15.8014 62.259 14.6988 61.7588 13.625 61.1695L13.6249 61.1694C11.4708 59.9878 9.56869 58.5263 7.92774 56.8433C6.72565 55.6103 5.65752 54.2552 4.73617 52.7954L4.73601 52.7951C3.15148 50.2879 1.98119 47.4613 1.27741 44.4259L1.27739 44.4258C0.218797 39.8642 0.206808 34.7862 1.45469 29.607L0.968889 29.49L1.45469 29.607C2.05001 27.1361 2.93056 24.6383 4.12533 22.1646L4.12534 22.1646C6.53067 17.184 9.91575 12.8836 13.9485 9.4818L13.9485 9.48177C15.6606 8.03725 17.4818 6.76107 19.3843 5.67201L19.3843 5.67196C22.4317 3.92673 25.6665 2.66934 28.9658 1.95557C30.1882 1.69129 31.4166 1.50307 32.644 1.39233C36.9967 0.999981 41.2971 1.58969 45.2533 3.23984L45.2533 3.23985C45.3409 3.27636 45.4493 3.31941 45.5734 3.36867C46.1631 3.60282 47.1067 3.97746 47.8452 4.45855C48.2991 4.75425 48.5902 5.03826 48.7023 5.28186C48.7521 5.39012 48.7614 5.47885 48.745 5.56166C48.7278 5.64849 48.673 5.77377 48.5195 5.93489L48.5195 5.93492C46.936 7.59703 45.3525 9.25917 43.7691 10.9213C34.3301 20.8294 24.8912 30.7373 15.4441 40.6375C15.1529 40.9426 14.8934 41.4402 15.2061 41.9111C15.3406 42.1138 15.5439 42.2349 15.743 42.3047C15.9445 42.3752 16.1749 42.4056 16.4188 42.4056H24.1393H24.1411H24.1429H24.1447H24.1465H24.1483H24.1501H24.1519H24.1537H24.1555H24.1573H24.1591H24.1609H24.1627H24.1645H24.1663H24.1681H24.1699H24.1717H24.1735H24.1753H24.1771H24.1789H24.1807H24.1825H24.1843H24.1861H24.1879H24.1897H24.1915H24.1933H24.1951H24.1968H24.1986H24.2004H24.2022H24.204H24.2058H24.2076H24.2094H24.2112H24.213H24.2148H24.2166H24.2183H24.2201H24.2219H24.2237H24.2255H24.2273H24.2291H24.2309H24.2326H24.2344H24.2362H24.238H24.2398H24.2416H24.2433H24.2451H24.2469H24.2487H24.2505H24.2522H24.254H24.2558H24.2576H24.2594H24.2611H24.2629H24.2647H24.2665H24.2683H24.27H24.2718H24.2736H24.2754H24.2771H24.2789H24.2807H24.2825H24.2842H24.286H24.2878H24.2895H24.2913H24.2931H24.2949H24.2966H24.2984H24.3002H24.3019H24.3037H24.3055H24.3072H24.309H24.3108H24.3125H24.3143H24.3161H24.3178H24.3196H24.3214H24.3231H24.3249H24.3266H24.3284H24.3302H24.3319H24.3337H24.3354H24.3372H24.339H24.3407H24.3425H24.3442H24.346H24.3477H24.3495H24.3513H24.353H24.3548H24.3565H24.3583H24.36H24.3618H24.3635H24.3653H24.367H24.3688H24.3705H24.3723H24.374H24.3758H24.3775H24.3793H24.381H24.3828H24.3845H24.3862H24.388H24.3897H24.3915H24.3932H24.395H24.3967H24.3984H24.4002H24.4019H24.4037H24.4054H24.4071H24.4089H24.4106H24.4124H24.4141H24.4158H24.4176H24.4193H24.421H24.4228H24.4245H24.4262H24.428H24.4297H24.4314H24.4332H24.4349H24.4366H24.4383H24.4401H24.4418H24.4435H24.4452H24.447H24.4487H24.4504H24.4521H24.4539H24.4556H24.4573H24.459H24.4608H24.4625H24.4642H24.4659H24.4676H24.4693H24.4711H24.4728H24.4745H24.4762H24.4779H24.4796H24.4814H24.4831H24.4848H24.4865H24.4882H24.4899H24.4916H24.4933H24.495H24.4968H24.4985H24.5002H24.5019H24.5036H24.5053H24.507H24.5087H24.5104H24.5121H24.5138H24.5155H24.5172H24.5189H24.5206H24.5223H24.524H24.5257H24.5274H24.5291H24.5308H24.5325H24.5342H24.5359H24.5376H24.5393H24.541H24.5426H24.5443H24.546H24.5477H24.5494H24.5511H24.5528H24.5545H24.5562H24.5578H24.5595H24.5612H24.5629H24.5646H24.5663H24.5679H24.5696H24.5713H24.573H24.5747H24.5763H24.578H24.5797H24.5814H24.583H24.5847H24.5864H24.5881H24.5897H24.5914H24.5931H24.5947H24.5964H24.5981H24.5998H24.6014H24.6031H24.6048H24.6064H24.6081H24.6098H24.6114H24.6131H24.6147H24.6164H24.6181H24.6197H24.6214H24.623H24.6247H24.6264H24.628H24.6297H24.6313H24.633H24.6346H24.6363H24.6379H24.6396H24.6412H24.6429H24.6445H24.6462H24.6478H24.6495H24.6511H24.6528H24.6544H24.6561H24.6577H24.6594H24.661H24.6626H24.6643H24.6659H24.6676H24.6692H24.6708H24.6725H24.6741H24.6758H24.6774H24.679H24.6807H24.6823H24.6839H24.6855H24.6872H24.6888H24.6904H24.6921H24.6937H24.6953H24.6969H24.6986H24.7002H24.7018H24.7034H24.7051H24.7067H24.7083H24.7099H24.7115H24.7132H24.7148H24.7164H24.718H24.7196H24.7212H24.7229H24.7245H24.7261H24.7277H24.7293H24.7309H24.7325H24.7341H24.7357H24.7373H24.7389H24.7405H24.7421H24.7438H24.7454H24.747H24.7486H24.7502H24.7518H24.7534H24.755H24.7565H24.7581H24.7597H24.7613H24.7629H24.7645H24.7661H24.7677H24.7693H24.7709H24.7725H24.7741H24.7756H24.7772H24.7788H24.7804H24.782H24.7836H24.7851H24.7867H24.7883H24.7899H24.7915H24.793H24.7946H24.7962H24.7978H24.7993H24.8009H24.8025H24.8041H24.8056H24.8072H24.8088H24.8103H24.8119H24.8135H24.815H24.8166H24.8182H24.8197H24.8213H24.8228H24.8244H24.826H24.8275H24.8291H24.8306H24.8322H24.8338H24.8353H24.8369H24.8384H24.84H24.8415H24.8431H24.8446H24.8462H24.8477H24.8493H24.8508H24.8523H24.8539H24.8554H24.857H24.8585H24.8601H24.8616H24.8631H24.8647H24.8662H24.8677H24.8693H24.8708H24.8723H24.8739H24.8754H24.8769H24.8785H24.88H24.8815H24.883H24.8846H24.8861H24.8876H24.8891H24.8907H24.8922H24.8937H24.8952H24.8967H24.8983H24.8998H24.9013H24.9028H24.9043H24.9058H24.9073H24.9088H24.9104H24.9119H24.9134H24.9149H24.9164H24.9179H24.9194H24.9209H24.9224H24.9239H24.9254H24.9269H24.9284H24.9299H24.9314H24.9329H24.9344H24.9359H24.9374H24.9389H24.9403H24.9418H24.9433H24.9448H24.9463H24.9478H24.9493H24.9508H24.9522H24.9537H24.9552H24.9567H24.9582H24.9596H24.9611H24.9626H24.9641H24.9655H24.967H24.9685H24.97H24.9714H24.9729H24.9744H24.9758H24.9773H24.9788H24.9802H24.9817H24.9831H24.9846H24.9861H24.9875H24.989C25.0346 42.4056 25.0701 42.4074 25.0982 42.4107C25.1034 42.4112 25.1081 42.4119 25.1124 42.4125M60.2347 22.2735L25.1083 42.3631M22.293 58.2687C22.2928 58.2689 22.2927 58.269 22.2925 58.2692L21.954 57.9015L22.2935 58.2683C22.2933 58.2684 22.2932 58.2686 22.293 58.2687ZM22.293 58.2687C22.2318 58.3254 22.1725 58.3751 22.1159 58.4192L22.1153 58.4197C21.9635 58.5374 21.7906 58.6431 21.606 58.691C21.4119 58.7412 21.1352 58.7387 20.9188 58.5251C20.7307 58.3395 20.6956 58.0936 20.6944 57.9259C20.6931 57.7433 20.7307 57.5427 20.7909 57.3366M20.7909 57.3366C20.7909 57.3366 20.7909 57.3366 20.7909 57.3366L21.2708 57.4768M20.7909 57.3366L21.2708 57.4768M20.7909 57.3366C21.2647 55.7151 21.7387 54.0938 22.2127 52.4725C23.1662 49.211 24.1197 45.9496 25.0712 42.6875L25.0712 42.6874C25.0825 42.6487 25.1041 42.5576 25.1106 42.4666C25.1121 42.4458 25.1126 42.4278 25.1124 42.4125M21.2708 57.4768C21.7443 55.8565 22.218 54.2361 22.6917 52.6158C23.6455 49.3532 24.5993 46.0907 25.5512 42.8275L25.1078 42.3614C25.1079 42.3614 25.108 42.362 25.1083 42.3631M25.1124 42.4125C25.1317 42.4153 25.143 42.4184 25.1486 42.4203C25.1545 42.4223 25.1508 42.4218 25.143 42.4161C25.1389 42.4131 25.1355 42.41 25.1329 42.4072C25.1299 42.4042 25.1278 42.4015 25.1267 42.3999C25.1145 42.3812 25.1096 42.3676 25.1083 42.3631M25.1124 42.4125C25.1122 42.3949 25.1111 42.3811 25.1096 42.3709C25.1091 42.3671 25.1086 42.3646 25.1083 42.3631" fill="#F1F0EF" stroke="#63635E" style="fill:#F1F0EF;fill:color(display-p3 0.9451 0.9412 0.9373);fill-opacity:1;stroke:#63635E;stroke:color(display-p3 0.3882 0.3882 0.3686);stroke-opacity:1;"/>
</svg>
