<svg width="242" height="166" viewBox="0 0 242 166" fill="none" xmlns="http://www.w3.org/2000/svg">
<path d="M129.806 76.8113C134.986 75.1074 137.039 67.2024 134.392 59.1551C131.999 51.882 126.586 46.9818 121.743 47.3642M129.806 76.8113C124.627 78.5152 118.282 73.3729 115.634 65.3256C112.987 57.2783 115.04 49.3733 120.22 47.6694C120.718 47.5055 121.227 47.4049 121.743 47.3642M129.806 76.8113L103.108 89.3054M62.0159 157.738L45.2185 165.751L17.8234 114.122M62.0159 157.738C62.0159 157.738 53.8484 148.337 48.917 137.088C44.8825 127.884 43.5299 118.783 43.1713 115.778M62.0159 157.738L67.944 150.523C67.944 150.523 60.2099 140.763 55.7924 129.302C54.0201 124.703 52.8909 120.159 52.1741 116.366M17.8234 114.122L15.6051 113.977C15.6051 113.977 6.32016 109.405 2.35639 94.5408C-1.60738 79.6766 4.37785 71.3829 4.37785 71.3829L106.123 3.73457M17.8234 114.122L43.1713 115.778M43.1713 115.778L52.1741 116.366M52.1741 116.366L138.48 122.957M92.5762 49.2298C93.0737 55.9703 94.2607 63.0612 96.1914 70.2668C98.0183 77.0849 100.371 83.481 103.108 89.3054M92.5762 49.2298C91.0388 28.3985 96.0874 10.914 106.123 3.73457M92.5762 49.2298L121.743 47.3642M103.108 89.3054C111.311 106.755 122.977 119.072 134.35 122.221C135.734 122.604 137.112 122.852 138.48 122.957M138.48 122.957C140.589 123.118 142.671 122.939 144.702 122.395C162.502 117.626 169.642 86.5544 160.65 52.9953C151.658 19.4361 129.939 -3.90253 112.139 0.866886C109.972 1.44742 107.964 2.41762 106.123 3.73457M171.535 49.5451L202.688 41.9284L194.385 31.2649L241 30.8079L210.228 38.8055L219.902 49.0881L171.535 49.5451ZM183.334 65.9494L199.166 68.6621L197.197 62.4919L218.947 71.2459L203.225 68.7698L205.899 75.0398L183.334 65.9494ZM174.296 29.3885L186.438 18.8733L187.947 25.1721L202.027 6.42431L189.855 16.6804L188.898 9.93142L174.296 29.3885Z" stroke="#FFFFFF" stroke-opacity="0.47451" style="stroke:#FFFFFF;stroke:color(display-p3 0.0588 0.0588 0.0000);stroke-opacity:0.47451;" stroke-width="0.5" stroke-miterlimit="16" stroke-linejoin="round"/>
</svg>
