<svg width="293" height="293" viewBox="0 0 293 293" fill="none" xmlns="http://www.w3.org/2000/svg">
<g clip-path="url(#clip0_1789_85241)">
<path fill-rule="evenodd" clip-rule="evenodd" d="M273.547 129.997V81.9785H292.754V91.5824H283.151V101.186H292.754V110.79H283.151V120.393H292.754V129.997H273.547ZM244.735 101.186V91.5824H235.132V120.393H244.735V110.79H254.339V120.393H263.943V101.186H244.735ZM206.32 110.79V120.393H215.924V110.79H225.528V101.186H196.716V110.79H206.32Z" fill="#E9E9E9"/>
<path d="M271.633 169.23C210.133 208.878 108.473 165.668 122.193 103.663C134.221 49.3034 198.796 64.9265 213.484 72.2623C228.172 79.5981 219.282 40.6338 185.222 28.9388C139.085 13.096 82.6103 16.4549 64.7587 96.0346C52.5595 150.419 76.4537 226.664 168.2 227.681C259.947 228.697 271.633 169.23 271.633 169.23Z" fill="#E9E9E9"/>
<path d="M292.684 181.556C292.684 164.103 270.286 162.574 260.153 172.456C235.803 196.195 199.954 205.085 152.003 195.724C68.6411 179.458 67.9011 81.7503 124.896 53.8791C155.727 38.8008 192.309 56.6524 206.216 67.3389C218.318 76.6347 241.464 88.9722 240.252 73.4548C237.666 40.4192 172.92 -30.3282 86.1674 14.4023C-0.577331 59.1329 9.96753e-05 160.086 9.96753e-05 178.384V237.347C9.96753e-05 255.313 14.753 269.448 32.7185 269.448H260.438C278.403 269.448 292.782 255.313 292.782 237.347C292.782 237.347 292.749 181.605 292.684 181.556Z" fill="#20ECC7"/>
<path fill-rule="evenodd" clip-rule="evenodd" d="M81.5755 154.299H52.7768V192.697H62.3764V183.097H71.9759V192.697H81.5755V154.299ZM100.775 173.498V183.097H110.374V173.498H119.974V163.898H91.175V173.498H100.775ZM292.765 163.898H273.566V173.498H263.967V183.097H283.166V173.498H292.765V163.898ZM196.77 163.898H177.571V173.498H167.971V183.097H187.17V173.498H196.77V163.898ZM254.367 163.898H244.768V183.097H254.367V163.898ZM215.969 163.898V154.299H206.369V187.315H215.969V173.498H225.569V187.315H235.168V163.898H215.969ZM158.372 154.299H129.573V183.097H158.372V154.299ZM43.1773 154.299H23.9782V163.898H14.3787V173.498H33.5777V163.898H43.1773V154.299ZM62.3764 163.898V173.498H71.9759V163.898H62.3764ZM139.173 163.898V173.498H148.772V163.898H139.173Z" fill="#E9E9E9"/>
<path fill-rule="evenodd" clip-rule="evenodd" d="M268.754 125.204V77.1855H287.962V86.7895H278.358V96.393H287.962V105.997H278.358V115.6H287.962V125.204H268.754ZM239.943 96.393V86.7895H230.339V115.6H239.943V105.997H249.547V115.6H259.151V96.393H239.943ZM201.528 105.997V115.6H211.132V105.997H220.735V96.393H191.924V105.997H201.528Z" fill="#FC257A"/>
<path fill-rule="evenodd" clip-rule="evenodd" d="M76.7822 149.506H47.9836V187.904H57.5832V178.304H67.1827V187.904H76.7822V149.506ZM95.9813 168.705V178.304H105.581V168.705H115.18V159.105H86.3818V168.705H95.9813ZM287.972 159.105H268.773V168.705H259.173V178.304H278.373V168.705H287.972V159.105ZM191.977 159.105H172.778V168.705H163.178V178.304H182.377V168.705H191.977V159.105ZM249.574 159.105H239.974V178.304H249.574V159.105ZM211.176 159.105V149.506H201.576V178.304H211.176V168.705H220.775V178.304H230.375V159.105H211.176ZM153.579 149.506H124.78V178.304H153.579V149.506ZM38.3841 149.506H19.185V159.105H9.58545V168.705H28.7845V159.105H38.3841V149.506ZM57.5832 159.105V168.705H67.1827V159.105H57.5832ZM134.379 159.105V168.705H143.979V159.105H134.379Z" fill="#FC257A"/>
<path fill-rule="evenodd" clip-rule="evenodd" d="M81.5896 250.238H100.789V269.437H62.3905V211.84H81.5896V250.238ZM4.79321 192.641H43.1914V211.84H23.9923V231.039H43.1914V250.238H23.9923V269.437H4.79321V192.641ZM177.585 211.84H119.988V269.437H177.585V211.84ZM215.983 231.039H235.182V211.84H254.381V231.039H273.58V211.84H292.779V250.238H196.784V211.84H215.983V231.039ZM139.187 231.039V250.238H158.386V231.039H139.187Z" fill="#E9E9E9"/>
<path fill-rule="evenodd" clip-rule="evenodd" d="M76.7963 245.445H95.9954V264.644H57.5973V207.047H76.7963V245.445ZM0 187.848H38.3982V207.047H19.1991V226.246H38.3982V245.445H19.1991V264.644H0V187.848ZM172.792 207.047H115.195V264.644H172.792V207.047ZM211.19 226.246H230.389V207.047H249.588V226.246H268.787V207.047H287.986V245.445H191.991V207.047H211.19V226.246ZM134.394 226.246V245.445H153.593V226.246H134.394Z" fill="#FC257A"/>
<path fill-rule="evenodd" clip-rule="evenodd" d="M91.2194 120.449H100.819V130.048H81.6199V101.25H91.2194V120.449ZM110.418 130.048V82.0508H129.618V91.6503H120.018V101.25H129.618V110.849H120.018V120.449H129.618V130.048H110.418ZM148.817 110.849V120.449H158.416V110.849H168.016V101.25H139.217V110.849H148.817Z" fill="#E9E9E9"/>
<path fill-rule="evenodd" clip-rule="evenodd" d="M86.4262 115.654H96.0257V125.254H76.8267V96.4549H86.4262V115.654ZM105.625 125.254V77.2559H124.824V86.8554H115.225V96.4549H124.824V106.054H115.225V115.654H124.824V125.254H105.625ZM144.023 106.054V115.654H153.623V106.054H163.223V96.4549H134.424V106.054H144.023Z" fill="#FC257A"/>
<path d="M191.881 289V281.727H192.719V284.412H192.79C192.851 284.317 192.937 284.196 193.045 284.05C193.157 283.901 193.315 283.768 193.521 283.652C193.73 283.534 194.011 283.474 194.366 283.474C194.826 283.474 195.231 283.589 195.581 283.819C195.931 284.049 196.205 284.374 196.401 284.795C196.598 285.217 196.696 285.714 196.696 286.287C196.696 286.865 196.598 287.365 196.401 287.789C196.205 288.21 195.933 288.537 195.585 288.769C195.237 288.999 194.835 289.114 194.381 289.114C194.03 289.114 193.75 289.056 193.539 288.94C193.328 288.821 193.166 288.687 193.053 288.538C192.939 288.387 192.851 288.261 192.79 288.162H192.69V289H191.881ZM192.705 286.273C192.705 286.685 192.765 287.048 192.886 287.363C193.006 287.675 193.183 287.92 193.415 288.098C193.647 288.273 193.931 288.361 194.267 288.361C194.617 288.361 194.91 288.268 195.144 288.084C195.381 287.897 195.558 287.646 195.677 287.331C195.798 287.014 195.858 286.661 195.858 286.273C195.858 285.889 195.799 285.544 195.68 285.236C195.564 284.926 195.388 284.681 195.151 284.501C194.917 284.318 194.622 284.227 194.267 284.227C193.926 284.227 193.64 284.314 193.408 284.487C193.176 284.657 193 284.896 192.882 285.204C192.764 285.509 192.705 285.866 192.705 286.273ZM198.722 291.045C198.58 291.045 198.454 291.034 198.342 291.01C198.231 290.989 198.154 290.967 198.112 290.946L198.325 290.207C198.528 290.259 198.708 290.278 198.864 290.264C199.021 290.25 199.159 290.18 199.28 290.055C199.403 289.932 199.516 289.732 199.617 289.455L199.774 289.028L197.757 283.545H198.666L200.171 287.892H200.228L201.734 283.545H202.643L200.328 289.795C200.223 290.077 200.094 290.31 199.94 290.495C199.787 290.682 199.608 290.821 199.404 290.911C199.203 291 198.976 291.045 198.722 291.045ZM211.552 289.852C210.827 289.852 210.187 289.753 209.631 289.554C209.074 289.357 208.607 289.067 208.228 288.684C207.849 288.3 207.563 287.83 207.369 287.274C207.175 286.718 207.077 286.081 207.077 285.364C207.077 284.67 207.176 284.05 207.372 283.503C207.571 282.956 207.859 282.492 208.235 282.111C208.614 281.727 209.073 281.435 209.613 281.234C210.155 281.032 210.768 280.932 211.452 280.932C212.118 280.932 212.7 281.041 213.2 281.259C213.702 281.474 214.121 281.766 214.457 282.136C214.795 282.503 215.049 282.916 215.217 283.375C215.387 283.834 215.472 284.308 215.472 284.795C215.472 285.139 215.456 285.487 215.423 285.839C215.39 286.192 215.32 286.517 215.213 286.812C215.107 287.106 214.942 287.343 214.72 287.523C214.499 287.703 214.201 287.793 213.825 287.793C213.659 287.793 213.477 287.767 213.278 287.714C213.079 287.662 212.903 287.576 212.749 287.455C212.595 287.335 212.504 287.172 212.475 286.969H212.433C212.376 287.106 212.288 287.236 212.17 287.359C212.054 287.482 211.901 287.581 211.712 287.654C211.525 287.728 211.296 287.759 211.026 287.75C210.719 287.738 210.448 287.67 210.213 287.544C209.979 287.416 209.782 287.243 209.624 287.026C209.467 286.805 209.349 286.551 209.269 286.262C209.19 285.971 209.151 285.657 209.151 285.321C209.151 285.001 209.199 284.709 209.293 284.444C209.388 284.179 209.519 283.947 209.688 283.748C209.858 283.549 210.057 283.39 210.284 283.272C210.514 283.151 210.761 283.077 211.026 283.048C211.263 283.025 211.479 283.035 211.673 283.08C211.867 283.123 212.027 283.188 212.152 283.276C212.278 283.361 212.357 283.455 212.39 283.56H212.433V283.162H213.185V286.372C213.185 286.571 213.241 286.746 213.352 286.898C213.464 287.049 213.626 287.125 213.839 287.125C214.08 287.125 214.265 287.042 214.393 286.876C214.523 286.711 214.612 286.455 214.659 286.109C214.709 285.764 214.734 285.321 214.734 284.781C214.734 284.464 214.69 284.152 214.602 283.844C214.517 283.534 214.387 283.244 214.212 282.974C214.039 282.704 213.82 282.466 213.555 282.26C213.29 282.054 212.978 281.893 212.621 281.777C212.266 281.659 211.862 281.599 211.41 281.599C210.854 281.599 210.355 281.686 209.915 281.859C209.477 282.029 209.104 282.279 208.796 282.608C208.491 282.935 208.258 283.332 208.097 283.801C207.938 284.268 207.859 284.798 207.859 285.392C207.859 285.996 207.938 286.532 208.097 287.001C208.258 287.469 208.494 287.865 208.807 288.187C209.122 288.509 209.511 288.754 209.975 288.922C210.439 289.088 210.974 289.17 211.58 289.17C211.841 289.17 212.098 289.146 212.351 289.096C212.604 289.046 212.828 288.992 213.022 288.933C213.216 288.873 213.356 288.83 213.441 288.801L213.64 289.455C213.493 289.516 213.301 289.578 213.065 289.639C212.83 289.701 212.579 289.752 212.312 289.792C212.047 289.832 211.793 289.852 211.552 289.852ZM211.14 287.026C211.457 287.026 211.714 286.962 211.911 286.834C212.107 286.706 212.25 286.513 212.34 286.255C212.43 285.997 212.475 285.671 212.475 285.278C212.475 284.881 212.425 284.571 212.326 284.348C212.227 284.125 212.08 283.969 211.886 283.879C211.692 283.789 211.452 283.744 211.168 283.744C210.899 283.744 210.668 283.815 210.476 283.957C210.287 284.097 210.141 284.284 210.039 284.518C209.94 284.75 209.89 285.004 209.89 285.278C209.89 285.581 209.93 285.867 210.011 286.134C210.091 286.399 210.223 286.615 210.405 286.781C210.587 286.944 210.832 287.026 211.14 287.026ZM217.24 289V281.727H219.698C220.268 281.727 220.735 281.83 221.097 282.036C221.462 282.24 221.731 282.516 221.907 282.864C222.082 283.212 222.169 283.6 222.169 284.028C222.169 284.457 222.082 284.846 221.907 285.197C221.734 285.547 221.466 285.826 221.104 286.035C220.742 286.241 220.278 286.344 219.712 286.344H217.951V285.562H219.684C220.074 285.562 220.388 285.495 220.625 285.36C220.861 285.225 221.033 285.043 221.14 284.813C221.248 284.581 221.303 284.32 221.303 284.028C221.303 283.737 221.248 283.477 221.14 283.247C221.033 283.018 220.86 282.838 220.621 282.707C220.382 282.575 220.065 282.509 219.669 282.509H218.121V289H217.24ZM225.48 289.128C225.134 289.128 224.82 289.063 224.539 288.933C224.257 288.8 224.033 288.609 223.867 288.361C223.702 288.11 223.619 287.807 223.619 287.452C223.619 287.139 223.68 286.886 223.803 286.692C223.927 286.495 224.091 286.341 224.297 286.23C224.503 286.119 224.73 286.036 224.979 285.982C225.23 285.925 225.482 285.88 225.735 285.847C226.067 285.804 226.335 285.772 226.541 285.751C226.75 285.727 226.901 285.688 226.996 285.634C227.093 285.579 227.142 285.484 227.142 285.349V285.321C227.142 284.971 227.046 284.698 226.854 284.504C226.664 284.31 226.377 284.213 225.991 284.213C225.591 284.213 225.277 284.301 225.05 284.476C224.823 284.651 224.663 284.838 224.57 285.037L223.775 284.753C223.917 284.421 224.106 284.163 224.343 283.979C224.582 283.792 224.843 283.661 225.124 283.588C225.409 283.512 225.688 283.474 225.963 283.474C226.138 283.474 226.339 283.496 226.566 283.538C226.796 283.579 227.017 283.663 227.23 283.79C227.446 283.918 227.624 284.111 227.767 284.369C227.909 284.627 227.98 284.973 227.98 285.406V289H227.142V288.261H227.099C227.042 288.38 226.947 288.506 226.815 288.641C226.682 288.776 226.506 288.891 226.286 288.986C226.066 289.08 225.797 289.128 225.48 289.128ZM225.607 288.375C225.939 288.375 226.218 288.31 226.445 288.18C226.675 288.049 226.848 287.881 226.964 287.675C227.082 287.469 227.142 287.253 227.142 287.026V286.259C227.106 286.301 227.028 286.34 226.907 286.376C226.789 286.409 226.651 286.438 226.495 286.464C226.341 286.488 226.191 286.509 226.044 286.528C225.9 286.545 225.783 286.559 225.693 286.571C225.475 286.599 225.271 286.646 225.082 286.71C224.895 286.771 224.743 286.865 224.627 286.99C224.514 287.113 224.457 287.281 224.457 287.494C224.457 287.786 224.565 288.006 224.78 288.155C224.998 288.302 225.274 288.375 225.607 288.375ZM229.909 289V283.545H230.747V289H229.909ZM230.335 282.636C230.172 282.636 230.031 282.581 229.913 282.469C229.797 282.358 229.739 282.224 229.739 282.068C229.739 281.912 229.797 281.778 229.913 281.667C230.031 281.556 230.172 281.5 230.335 281.5C230.499 281.5 230.638 281.556 230.754 281.667C230.873 281.778 230.932 281.912 230.932 282.068C230.932 282.224 230.873 282.358 230.754 282.469C230.638 282.581 230.499 282.636 230.335 282.636ZM233.52 285.719V289H232.682V283.545H233.492V284.398H233.563C233.691 284.121 233.885 283.898 234.145 283.73C234.406 283.56 234.742 283.474 235.154 283.474C235.523 283.474 235.846 283.55 236.123 283.702C236.4 283.851 236.616 284.078 236.77 284.384C236.924 284.687 237 285.07 237 285.534V289H236.162V285.591C236.162 285.162 236.051 284.829 235.829 284.589C235.606 284.348 235.301 284.227 234.912 284.227C234.645 284.227 234.406 284.285 234.195 284.401C233.987 284.517 233.822 284.687 233.701 284.909C233.581 285.132 233.52 285.402 233.52 285.719ZM241.304 283.545V284.256H238.477V283.545H241.304ZM239.301 282.239H240.139V287.438C240.139 287.674 240.174 287.852 240.242 287.97C240.313 288.086 240.403 288.164 240.512 288.205C240.623 288.242 240.741 288.261 240.864 288.261C240.956 288.261 241.032 288.257 241.091 288.247C241.15 288.235 241.198 288.226 241.233 288.219L241.403 288.972C241.347 288.993 241.267 289.014 241.166 289.036C241.064 289.059 240.935 289.071 240.778 289.071C240.542 289.071 240.31 289.02 240.082 288.918C239.858 288.817 239.671 288.661 239.521 288.453C239.375 288.245 239.301 287.982 239.301 287.665V282.239ZM242.965 289V283.545H243.803V289H242.965ZM243.391 282.636C243.227 282.636 243.087 282.581 242.968 282.469C242.852 282.358 242.794 282.224 242.794 282.068C242.794 281.912 242.852 281.778 242.968 281.667C243.087 281.556 243.227 281.5 243.391 281.5C243.554 281.5 243.694 281.556 243.81 281.667C243.928 281.778 243.987 281.912 243.987 282.068C243.987 282.224 243.928 282.358 243.81 282.469C243.694 282.581 243.554 282.636 243.391 282.636ZM246.576 285.719V289H245.738V283.545H246.547V284.398H246.618C246.746 284.121 246.94 283.898 247.201 283.73C247.461 283.56 247.797 283.474 248.209 283.474C248.579 283.474 248.902 283.55 249.179 283.702C249.456 283.851 249.671 284.078 249.825 284.384C249.979 284.687 250.056 285.07 250.056 285.534V289H249.218V285.591C249.218 285.162 249.107 284.829 248.884 284.589C248.662 284.348 248.356 284.227 247.968 284.227C247.7 284.227 247.461 284.285 247.251 284.401C247.042 284.517 246.878 284.687 246.757 284.909C246.636 285.132 246.576 285.402 246.576 285.719ZM254.189 291.159C253.784 291.159 253.436 291.107 253.145 291.003C252.854 290.901 252.611 290.766 252.417 290.598C252.225 290.432 252.073 290.255 251.959 290.065L252.627 289.597C252.702 289.696 252.798 289.81 252.914 289.938C253.03 290.068 253.189 290.18 253.39 290.275C253.594 290.372 253.86 290.42 254.189 290.42C254.629 290.42 254.993 290.314 255.279 290.101C255.566 289.888 255.709 289.554 255.709 289.099V287.991H255.638C255.576 288.091 255.489 288.214 255.375 288.361C255.264 288.505 255.103 288.634 254.892 288.748C254.684 288.859 254.402 288.915 254.047 288.915C253.607 288.915 253.211 288.811 252.861 288.602C252.513 288.394 252.237 288.091 252.034 287.693C251.832 287.295 251.732 286.812 251.732 286.244C251.732 285.686 251.83 285.199 252.026 284.785C252.223 284.368 252.496 284.046 252.847 283.819C253.197 283.589 253.602 283.474 254.061 283.474C254.416 283.474 254.698 283.534 254.906 283.652C255.117 283.768 255.278 283.901 255.389 284.05C255.503 284.196 255.591 284.317 255.652 284.412H255.737V283.545H256.547V289.156C256.547 289.625 256.44 290.006 256.227 290.3C256.017 290.596 255.733 290.812 255.375 290.95C255.02 291.089 254.625 291.159 254.189 291.159ZM254.161 288.162C254.497 288.162 254.781 288.085 255.013 287.931C255.245 287.777 255.421 287.556 255.542 287.267C255.663 286.978 255.723 286.633 255.723 286.23C255.723 285.837 255.664 285.49 255.546 285.19C255.427 284.889 255.252 284.653 255.02 284.483C254.788 284.312 254.502 284.227 254.161 284.227C253.806 284.227 253.51 284.317 253.273 284.497C253.038 284.677 252.862 284.919 252.744 285.222C252.628 285.525 252.57 285.861 252.57 286.23C252.57 286.609 252.629 286.944 252.747 287.235C252.868 287.524 253.046 287.751 253.28 287.917C253.517 288.08 253.81 288.162 254.161 288.162ZM258.595 289V281.727H261.137C261.644 281.727 262.062 281.815 262.391 281.99C262.72 282.163 262.965 282.396 263.126 282.69C263.287 282.981 263.367 283.304 263.367 283.659C263.367 283.972 263.312 284.23 263.201 284.433C263.092 284.637 262.947 284.798 262.767 284.916C262.59 285.035 262.397 285.122 262.188 285.179V285.25C262.411 285.264 262.635 285.342 262.86 285.484C263.085 285.626 263.273 285.83 263.424 286.095C263.576 286.36 263.652 286.685 263.652 287.068C263.652 287.433 263.569 287.761 263.403 288.052C263.237 288.343 262.976 288.574 262.618 288.744C262.261 288.915 261.796 289 261.223 289H258.595ZM259.475 288.219H261.223C261.798 288.219 262.206 288.107 262.448 287.885C262.692 287.66 262.813 287.388 262.813 287.068C262.813 286.822 262.751 286.595 262.625 286.386C262.5 286.176 262.321 286.008 262.089 285.882C261.857 285.754 261.582 285.69 261.265 285.69H259.475V288.219ZM259.475 284.923H261.109C261.374 284.923 261.613 284.871 261.826 284.767C262.042 284.663 262.212 284.516 262.338 284.327C262.465 284.137 262.529 283.915 262.529 283.659C262.529 283.339 262.418 283.068 262.196 282.846C261.973 282.621 261.62 282.509 261.137 282.509H259.475V284.923ZM265.385 289V283.545H266.223V289H265.385ZM265.811 282.636C265.648 282.636 265.507 282.581 265.389 282.469C265.273 282.358 265.215 282.224 265.215 282.068C265.215 281.912 265.273 281.778 265.389 281.667C265.507 281.556 265.648 281.5 265.811 281.5C265.974 281.5 266.114 281.556 266.23 281.667C266.349 281.778 266.408 281.912 266.408 282.068C266.408 282.224 266.349 282.358 266.23 282.469C266.114 282.581 265.974 282.636 265.811 282.636ZM270.53 283.545V284.256H267.704V283.545H270.53ZM268.527 282.239H269.365V287.438C269.365 287.674 269.4 287.852 269.468 287.97C269.539 288.086 269.629 288.164 269.738 288.205C269.85 288.242 269.967 288.261 270.09 288.261C270.182 288.261 270.258 288.257 270.317 288.247C270.376 288.235 270.424 288.226 270.459 288.219L270.63 288.972C270.573 288.993 270.494 289.014 270.392 289.036C270.29 289.059 270.161 289.071 270.005 289.071C269.768 289.071 269.536 289.02 269.309 288.918C269.084 288.817 268.897 288.661 268.748 288.453C268.601 288.245 268.527 287.982 268.527 287.665V282.239ZM274.348 289.114C273.837 289.114 273.396 288.993 273.027 288.751C272.658 288.51 272.374 288.177 272.175 287.754C271.976 287.33 271.877 286.846 271.877 286.301C271.877 285.747 271.978 285.258 272.182 284.835C272.388 284.408 272.674 284.076 273.041 283.837C273.411 283.595 273.842 283.474 274.334 283.474C274.718 283.474 275.063 283.545 275.371 283.688C275.679 283.83 275.931 284.028 276.127 284.284C276.324 284.54 276.446 284.838 276.493 285.179H275.655C275.591 284.93 275.449 284.71 275.229 284.518C275.011 284.324 274.718 284.227 274.348 284.227C274.021 284.227 273.735 284.312 273.489 284.483C273.245 284.651 273.054 284.889 272.917 285.197C272.782 285.502 272.715 285.861 272.715 286.273C272.715 286.694 272.781 287.061 272.914 287.374C273.048 287.686 273.238 287.929 273.482 288.102C273.728 288.274 274.017 288.361 274.348 288.361C274.566 288.361 274.764 288.323 274.941 288.247C275.119 288.171 275.269 288.062 275.392 287.92C275.515 287.778 275.603 287.608 275.655 287.409H276.493C276.446 287.731 276.329 288.021 276.142 288.279C275.957 288.535 275.712 288.738 275.406 288.89C275.103 289.039 274.751 289.114 274.348 289.114ZM280.334 289.114C279.842 289.114 279.41 288.996 279.038 288.762C278.669 288.528 278.38 288.2 278.171 287.778C277.966 287.357 277.863 286.865 277.863 286.301C277.863 285.733 277.966 285.237 278.171 284.813C278.38 284.389 278.669 284.06 279.038 283.826C279.41 283.592 279.842 283.474 280.334 283.474C280.827 283.474 281.257 283.592 281.627 283.826C281.998 284.06 282.287 284.389 282.493 284.813C282.702 285.237 282.806 285.733 282.806 286.301C282.806 286.865 282.702 287.357 282.493 287.778C282.287 288.2 281.998 288.528 281.627 288.762C281.257 288.996 280.827 289.114 280.334 289.114ZM280.334 288.361C280.708 288.361 281.016 288.265 281.257 288.073C281.499 287.881 281.678 287.629 281.794 287.317C281.91 287.004 281.968 286.666 281.968 286.301C281.968 285.937 281.91 285.597 281.794 285.282C281.678 284.967 281.499 284.713 281.257 284.518C281.016 284.324 280.708 284.227 280.334 284.227C279.96 284.227 279.652 284.324 279.411 284.518C279.169 284.713 278.991 284.967 278.875 285.282C278.759 285.597 278.701 285.937 278.701 286.301C278.701 286.666 278.759 287.004 278.875 287.317C278.991 287.629 279.169 287.881 279.411 288.073C279.652 288.265 279.96 288.361 280.334 288.361ZM284.485 289V283.545H285.323V289H284.485ZM284.911 282.636C284.748 282.636 284.607 282.581 284.489 282.469C284.373 282.358 284.315 282.224 284.315 282.068C284.315 281.912 284.373 281.778 284.489 281.667C284.607 281.556 284.748 281.5 284.911 281.5C285.075 281.5 285.214 281.556 285.33 281.667C285.449 281.778 285.508 281.912 285.508 282.068C285.508 282.224 285.449 282.358 285.33 282.469C285.214 282.581 285.075 282.636 284.911 282.636ZM288.096 285.719V289H287.258V283.545H288.068V284.398H288.139C288.267 284.121 288.461 283.898 288.721 283.73C288.982 283.56 289.318 283.474 289.73 283.474C290.099 283.474 290.422 283.55 290.699 283.702C290.976 283.851 291.192 284.078 291.345 284.384C291.499 284.687 291.576 285.07 291.576 285.534V289H290.738V285.591C290.738 285.162 290.627 284.829 290.404 284.589C290.182 284.348 289.876 284.227 289.488 284.227C289.221 284.227 288.982 284.285 288.771 284.401C288.563 284.517 288.398 284.687 288.277 284.909C288.156 285.132 288.096 285.402 288.096 285.719Z" fill="#495057"/>
</g>
<defs>
<clipPath id="clip0_1789_85241">
<rect width="293" height="293" fill="white"/>
</clipPath>
</defs>
</svg>
