<svg width="22" height="22" viewBox="0 0 22 22" fill="none" xmlns="http://www.w3.org/2000/svg">
<path d="M5 4.75L11 1L17 4.75" stroke="black" stroke-width="1.2" stroke-linecap="round" stroke-linejoin="round"/>
<path d="M11 12.25V1" stroke="black" stroke-width="1.2" stroke-linecap="round" stroke-linejoin="round"/>
<path d="M17 8.5H20C20.2652 8.5 20.5196 8.5878 20.7071 8.74408C20.8946 8.90036 21 9.11232 21 9.33333V20.1667C21 20.3877 20.8946 20.5996 20.7071 20.7559C20.5196 20.9122 20.2652 21 20 21H2C1.73478 21 1.48043 20.9122 1.29289 20.7559C1.10536 20.5996 1 20.3877 1 20.1667V9.33333C1 9.11232 1.10536 8.90036 1.29289 8.74408C1.48043 8.5878 1.73478 8.5 2 8.5H5" stroke="black" stroke-width="1.2" stroke-linecap="round" stroke-linejoin="round"/>
</svg>
